<svg xmlns="http://www.w3.org/2000/svg" xmlns:xlink="http://www.w3.org/1999/xlink" viewBox="0 0 79.3714 134.5" width="79.3714" height="134.5"><defs><style>.a,.b{stroke:#000;stroke-linecap:round;stroke-linejoin:round;}.a{stroke-width:0.75px;}.b{fill:#99e576;stroke-width:2px;}.c{fill:url(#a);}</style><linearGradient id="a" x1="38.4961" y1="133.5" x2="38.4961" y2="67.5" gradientUnits="userSpaceOnUse"><stop offset="0" stop-color="#aadaff"/><stop offset="1" stop-color="#29abe2"/></linearGradient></defs><title>aloe</title><polygon class="a" points="58.751 71.221 55.242 72.048 58.165 74.779 58.751 71.221"/><polygon class="a" points="53.404 71.762 49.806 71.523 51.799 74.991 53.404 71.762"/><polygon class="a" points="48.012 72.019 44.415 71.779 46.407 75.248 48.012 72.019"/><polygon class="a" points="42.621 72.276 39.023 72.036 41.016 75.504 42.621 72.276"/><polygon class="a" points="34.835 75.665 37.955 73.859 34.368 72.09 34.835 75.665"/><polygon class="a" points="34.831 71.631 31.249 71.22 33.074 74.78 34.831 71.631"/><polygon class="a" points="29.884 70.631 26.302 70.22 28.128 73.78 29.884 70.631"/><polygon class="a" points="24.487 70.631 20.905 70.22 22.73 73.78 24.487 70.631"/><polygon class="a" points="18.467 69.718 16.345 66.803 14.96 70.555 18.467 69.718"/><polygon class="a" points="13.184 63.44 11.485 60.259 9.595 63.785 13.184 63.44"/><polygon class="a" points="9.331 57.291 8.048 53.921 5.727 57.178 9.331 57.291"/><polygon class="a" points="6.683 51.489 5.789 47.996 3.115 50.971 6.683 51.489"/><polygon class="a" points="5.014 46.526 4.47 42.961 1.515 45.657 5.014 46.526"/><polygon class="a" points="4.098 42.72 3.862 39.122 0.686 41.555 4.098 42.72"/><polygon class="a" points="3.691 40.39 3.722 36.784 0.375 38.975 3.691 40.39"/><polygon class="a" points="2.547 40.359 4.623 43.307 6.066 39.576 2.547 40.359"/><polygon class="a" points="6.404 44.443 8.763 47.17 9.829 43.315 6.404 44.443"/><polygon class="a" points="11.466 48.964 13.955 51.573 14.831 47.67 11.466 48.964"/><polygon class="a" points="17.093 50.949 16.221 47.451 13.528 50.409 17.093 50.949"/><polygon class="a" points="14.551 42.941 14.082 39.366 11.071 41.999 14.551 42.941"/><polygon class="a" points="13.041 35.578 12.929 31.974 9.671 34.295 13.041 35.578"/><polygon class="a" points="12.219 29.133 12.417 25.533 8.972 27.565 12.219 29.133"/><polygon class="a" points="11.904 23.88 12.368 20.304 8.782 22.076 11.904 23.88"/><polygon class="a" points="11.901 20.089 12.592 16.551 8.9 18.091 11.901 20.089"/><polygon class="a" points="10.855 21.078 11.641 24.597 14.406 21.706 10.855 21.078"/><polygon class="a" points="12.773 25.857 13.928 29.272 16.37 26.104 12.773 25.857"/><polygon class="a" points="15.267 30.69 16.704 33.997 18.873 30.636 15.267 30.69"/><polygon class="a" points="18.227 35.588 19.88 38.792 21.821 35.295 18.227 35.588"/><polygon class="a" points="21.545 40.38 23.368 43.491 25.117 39.894 21.545 40.38"/><polygon class="a" points="25.117 45.021 27.076 48.048 28.664 44.377 25.117 45.021"/><polygon class="a" points="28.84 49.462 30.909 52.415 32.361 48.689 28.84 49.462"/><polygon class="a" points="33.555 49.577 33.852 45.984 30.352 47.92 33.555 49.577"/><polygon class="a" points="33.331 41.41 33.707 37.824 30.165 39.684 33.331 41.41"/><polygon class="a" points="33.279 33.684 33.721 30.106 30.146 31.9 33.279 33.684"/><polygon class="a" points="33.356 26.583 33.855 23.012 30.252 24.749 33.356 26.583"/><polygon class="a" points="33.517 20.288 34.066 16.724 30.439 18.411 33.517 20.288"/><polygon class="a" points="33.72 14.981 34.311 11.425 30.664 13.068 33.72 14.981"/><polygon class="a" points="33.921 10.846 34.55 7.296 30.886 8.9 33.921 10.846"/><polygon class="a" points="34.078 8.065 34.74 4.52 31.061 6.09 34.078 8.065"/><polygon class="a" points="33.042 7.178 34.127 10.616 36.634 7.499 33.042 7.178"/><polygon class="a" points="35.216 12.364 36.12 15.855 38.786 12.872 35.216 12.364"/><polygon class="a" points="37.121 17.623 37.862 21.151 40.663 18.296 37.121 17.623"/><polygon class="a" points="38.773 22.902 39.367 26.459 42.284 23.722 38.773 22.902"/><polygon class="a" points="40.192 28.153 40.652 31.729 43.67 29.104 40.192 28.153"/><polygon class="a" points="41.394 33.325 41.732 36.914 44.837 34.393 41.394 33.325"/><polygon class="a" points="42.396 38.368 42.626 41.966 45.806 39.541 42.396 38.368"/><polygon class="a" points="43.218 43.233 43.348 46.837 46.594 44.499 43.218 43.233"/><polygon class="a" points="72.996 59 71.996 57 69.996 58 72.996 59"/><polygon class="a" points="49.372 36.037 50.908 32.776 46.952 33.365 49.372 36.037"/><polygon class="a" points="51.322 30.28 52.764 26.976 48.826 27.679 51.322 30.28"/><polygon class="a" points="53.065 24.615 54.384 21.259 50.475 22.107 53.065 24.615"/><polygon class="a" points="54.534 19.16 55.69 15.745 51.826 16.779 54.534 19.16"/><polygon class="a" points="55.67 14.035 56.601 10.552 52.813 11.836 55.67 14.035"/><polygon class="a" points="56.424 9.354 57.028 5.8 53.375 7.429 56.424 9.354"/><polygon class="a" points="56.756 5.225 56.863 1.621 53.47 3.74 56.756 5.225"/><polygon class="a" points="75.325 39.561 76.59 42.937 78.996 41 75.325 39.561"/><polygon class="a" points="73.996 51 72.996 53 75.996 53 73.996 51"/><polygon class="a" points="55.109 4.531 56.022 8.02 58.68 5.031 55.109 4.531"/><polygon class="a" points="56.422 8.184 57.117 11.722 59.955 8.903 56.422 8.184"/><polygon class="a" points="57.753 12.817 58.198 16.395 61.227 13.783 57.753 12.817"/><polygon class="a" points="58.905 18.334 59.063 21.936 62.291 19.574 58.905 18.334"/><polygon class="a" points="59.767 24.64 59.6 28.242 63.027 26.179 59.767 24.64"/><polygon class="a" points="60.157 31.64 59.628 35.206 63.246 33.499 60.157 31.64"/><polygon class="a" points="59.796 39.238 58.876 42.724 62.66 41.428 59.796 39.238"/><polygon class="a" points="58.481 47.341 57.151 50.692 61.063 49.857 58.481 47.341"/><polygon class="a" points="56.001 55.849 54.261 59.007 58.247 58.67 56.001 55.849"/><polygon class="a" points="66.587 63.593 69.996 63 65.764 60.083 66.587 63.593"/><polygon class="a" points="64.339 51.192 67.185 48.978 63.39 47.714 64.339 51.192"/><polygon class="a" points="68.692 46.842 71.419 44.483 67.563 43.418 68.692 46.842"/><polygon class="a" points="72.443 42.677 74.97 40.105 71.041 39.356 72.443 42.677"/><polygon class="a" points="75.442 38.805 77.586 35.906 73.591 35.71 75.442 38.805"/><polygon class="a" points="74.212 47.293 77.996 47 76.057 44.195 74.212 47.293"/><path class="b" d="M32.9964,4s-3,37,1,68h13S47.9964,34,32.9964,4Z"/><path class="b" d="M1.9964,37s1,18,18,34h23S3.9964,44,1.9964,37Z"/><path class="b" d="M33.9964,70s24-50,21-69c0,0,18,33-6,69Z"/><path class="b" d="M10.9964,15s-5,31,19,57h24S13.9964,40,10.9964,15Z"/><path class="b" d="M76.9964,33s4,21-20,39l-21,1S73.9964,45,76.9964,33Z"/><path class="c" d="M11.3225,133.5a4.9767,4.9767,0,0,1-4.998-4.8525L4.5262,67.5h67.94l-1.7988,61.1475A4.9745,4.9745,0,0,1,65.67,133.5Z"/><path d="M71.4367,68.5l-1.7682,60.1176A3.9807,3.9807,0,0,1,65.67,132.5H11.3225a3.9808,3.9808,0,0,1-3.9983-3.8824L5.5561,68.5H71.4367m2.06-2h-70l1.8287,62.1764A6,6,0,0,0,11.3225,134.5H65.67a6,6,0,0,0,5.9974-5.8236L73.4964,66.5Z"/></svg>