<svg id="Layer_1" enable-background="new 0 0 512 512" height="512" viewBox="0 0 512 512" width="512" xmlns="http://www.w3.org/2000/svg"><path d="m400.6 80.333c-26.031 0-47.133 21.05-47.133 47.134v49.267h-34.267v-113.534c0-34.848-28.351-63.2-63.2-63.2-34.846 0-63.2 28.171-63.2 63.2v193.866h-34.267v-81.399c0-25.989-21.144-47.134-47.133-47.134-26.03 0-47.134 21.049-47.134 47.134v96.399c0 43.708 35.559 79.267 79.267 79.267h49.267v130.667h-49.267c-8.284 0-15 6.716-15 15s6.716 15 15 15h224.934c8.284 0 15-6.716 15-15s-6.716-15-15-15h-49.267v-211h49.267c43.708 0 79.267-35.559 79.267-79.267v-64.267c-.001-25.988-21.145-47.133-47.134-47.133zm17.133 111.4c0 27.166-22.101 49.267-49.267 49.267h-64.266c-8.284 0-15 6.716-15 15v226h-66.4v-145.667c0-8.284-6.716-15-15-15h-64.267c-27.166 0-49.267-22.101-49.267-49.267v-96.399c0-9.487 7.673-17.134 17.134-17.134 9.447 0 17.133 7.687 17.133 17.134v96.399c0 8.284 6.716 15 15 15h64.267c8.284 0 15-6.716 15-15v-208.866c0-18.386 14.874-33.2 33.2-33.2 18.307 0 33.2 14.894 33.2 33.2v128.533c0 8.284 6.716 15 15 15h64.267c8.284 0 15-6.716 15-15v-64.267c0-9.469 7.654-17.134 17.133-17.134 9.447 0 17.134 7.687 17.134 17.134v64.267z"/></svg>