<svg xmlns="http://www.w3.org/2000/svg" viewBox="0 0 83.3317 136" width="83.3317" height="136"><defs><style>.a{fill:#71db84;}.a,.b{stroke:#000;stroke-miterlimit:10;stroke-width:2px;}.b{fill:#e2bee5;}.c{fill:#5e9164;}</style></defs><title>bunny-ears</title><path class="a" d="M37,61S40,1,23,1,6,49,37,61Z"/><path class="a" d="M46,63S40-8,72,11,52,63,46,63Z"/><path class="a" d="M52,85S63,58,39,56,17,78,20,85Z"/><path class="b" d="M37,135H35A34,34,0,0,1,1,101L3,75H69l2,26A34,34,0,0,1,37,135Z"/><circle class="c" cx="18" cy="17" r="2"/><circle class="c" cx="22" cy="9" r="2"/><circle class="c" cx="27" cy="18" r="2"/><circle class="c" cx="20" cy="26" r="2"/><circle class="c" cx="28" cy="29" r="2"/><circle class="c" cx="23" cy="38" r="2"/><circle class="c" cx="30" cy="46" r="2"/><circle class="c" cx="52" cy="51" r="2"/><circle class="c" cx="54" cy="39" r="2"/><circle class="c" cx="60" cy="46" r="2"/><circle class="c" cx="65" cy="30" r="2"/><circle class="c" cx="57" cy="20" r="2"/><circle class="c" cx="68" cy="39" r="2"/><circle class="c" cx="54" cy="29" r="2"/><circle class="c" cx="67" cy="18" r="2"/><circle class="c" cx="75" cy="27" r="2"/><circle class="c" cx="32" cy="63" r="2"/><circle class="c" cx="26" cy="70" r="2"/><circle class="c" cx="46" cy="68" r="2"/><circle class="c" cx="36" cy="69" r="2"/><circle class="c" cx="41" cy="60" r="2"/></svg>