<svg xmlns="http://www.w3.org/2000/svg" viewBox="0 0 125 186.8566" width="125" height="186.8566"><defs><style>.a{fill:#fff;}.b{fill:none;}.b,.d{stroke:#000;stroke-linecap:round;stroke-linejoin:round;stroke-width:2px;}.c{fill:#ddb9a4;}.d{fill:#d9eab0;}</style></defs><title>donkeys-tail</title><path class="a" d="M62.5,4.4263a1.7132,1.7132,0,1,1,1.7129-1.7129A1.7152,1.7152,0,0,1,62.5,4.4263Z"/><path d="M62.5,2a.7133.7133,0,1,1-.7132.7132A.714.714,0,0,1,62.5,2m0-2a2.7133,2.7133,0,1,0,2.7132,2.7132A2.7132,2.7132,0,0,0,62.5,0Z"/><line class="b" x1="21.8015" y1="47.4816" x2="62.5" y2="2.261"/><line class="b" x1="103.1985" y1="47.4816" x2="62.5" y2="2.261"/><path class="c" d="M37.1763,96.2246A12.5948,12.5948,0,0,1,24.6392,84.52a12.3192,12.3192,0,0,0-.5225-2.6806l-8.5908-29.167a3.3158,3.3158,0,0,1,.6753-2.9385,6.2593,6.2593,0,0,1,4.7417-2.1563h83.1137a6.2617,6.2617,0,0,1,4.7422,2.1558,3.338,3.338,0,0,1,.6641,2.9819l-8.32,28.2461a29.6527,29.6527,0,0,0-.8682,4.4034,12.6018,12.6018,0,0,1-12.4512,10.86Z"/><path d="M104.057,48.5772a5.215,5.215,0,0,1,3.9546,1.7724,2.3491,2.3491,0,0,1,.4895,2.0875l-8.3185,28.2408a30.4893,30.4893,0,0,0-.8987,4.5524,11.5983,11.5983,0,0,1-11.46,9.994H37.1765A11.5912,11.5912,0,0,1,25.6371,84.452a13.3249,13.3249,0,0,0-.5607-2.895l-8.5775-29.12a2.3491,2.3491,0,0,1,.4895-2.0875,5.215,5.215,0,0,1,3.9546-1.7724h83.114m0-2H20.943c-3.5218,0-7.2812,2.7132-6.3768,6.3768l8.5917,29.1681a11.5063,11.5063,0,0,1,.4837,2.4648A13.567,13.567,0,0,0,37.1765,97.2243h50.647a13.569,13.569,0,0,0,13.4423-11.7252,28.6194,28.6194,0,0,1,.8353-4.2561l8.3327-28.289c.9044-3.6636-2.855-6.3768-6.3768-6.3768Z"/><path class="d" d="M76.9706,185.8566s-8.14-16.2794,0-18.0882S76.9706,185.8566,76.9706,185.8566Z"/><path class="d" d="M66.1176,175.9081S68.8309,157.82,77.875,162.3419,66.1176,175.9081,66.1176,175.9081Z"/><path class="d" d="M84.2059,181.3346s-15.375-12.6618-4.07-14.9228S84.2059,181.3346,84.2059,181.3346Z"/><path class="d" d="M26.3235,163.2463s-10.8529-18.9926,0-19.897S26.3235,163.2463,26.3235,163.2463Z"/><path class="d" d="M33.5588,157.82s-18.0882-15.375-9.9485-18.9927S33.5588,157.82,33.5588,157.82Z"/><path class="d" d="M18.1838,144.2537s-12.6617-17.1838,0-20.8015S18.1838,144.2537,18.1838,144.2537Z"/><path class="d" d="M105.0074,127.9743s-3.6177-15.375,4.522-16.2794S105.0074,127.9743,105.0074,127.9743Z"/><path class="d" d="M111.3382,121.6434s-8.14-9.9485-1.8088-15.375S111.3382,121.6434,111.3382,121.6434Z"/><path class="d" d="M101.39,118.93s-.9044-12.6617,6.3309-13.5661S109.5294,114.4081,101.39,118.93Z"/><path class="d" d="M98.6765,107.1728s1.8088-18.9927,9.0441-14.4706S98.6765,107.1728,98.6765,107.1728Z"/><path class="d" d="M4.6176,108.9816s0-23.5147,9.0442-16.2794S4.6176,108.9816,4.6176,108.9816Z"/><path class="d" d="M1,79.136S2.8088,58.3346,11.8529,63.761,1,79.136,1,79.136Z"/><path class="d" d="M61.5956,120.739s-1.8088-19.8971,8.14-14.4706S61.5956,120.739,61.5956,120.739Z"/><path class="d" d="M85.11,137.0184s-11.7574-10.853-5.4265-14.4706S85.11,137.0184,85.11,137.0184Z"/><path class="d" d="M101.39,85.4669s2.7132-16.2794,9.0441-11.7573S101.39,85.4669,101.39,85.4669Z"/><path class="d" d="M124,61.0478s-16.2794-1.8088-10.8529-10.8529S124,61.0478,124,61.0478Z"/><path class="d" d="M48.0294,48.386s2.7132-11.7573,11.7574-7.2353S48.0294,48.386,48.0294,48.386Z"/><path class="d" d="M2.8088,56.5257S6.4265,35.7243,19.0882,42.0551,2.8088,56.5257,2.8088,56.5257Z"/><path class="d" d="M21.8015,31.2022s4.9742-6.3309,12.4356,3.1654S21.8015,31.2022,21.8015,31.2022Z"/><path class="d" d="M48.0294,28.489s0,15.375-5.4265,14.4706S45.3162,26.68,48.0294,28.489Z"/><path class="d" d="M38.9853,36.6287s-7.2353-2.7133-3.6177-9.0441S38.9853,36.6287,38.9853,36.6287Z"/><path class="d" d="M89.6324,38.4375s2.7132-14.4706,7.2352-9.9485S89.6324,38.4375,89.6324,38.4375Z"/><path class="d" d="M88.7279,59.239S72.4485,52.9081,76.9706,44.7684,88.7279,59.239,88.7279,59.239Z"/><path class="d" d="M87.8235,80.9449S67.9265,74.614,76.9706,65.57,88.7279,70.0919,87.8235,80.9449Z"/><path class="d" d="M25.4191,151.489S11.8529,125.261,22.7059,127.07,25.4191,151.489,25.4191,151.489Z"/><path class="d" d="M76.9706,176.8125s-11.7574-24.4191,0-22.61c6.4324.99,5.8265,7.6641,3.9582,13.5068A55.1182,55.1182,0,0,1,76.9706,176.8125Z"/><path class="d" d="M82.3971,170.4816s-10.853-22.61-4.5221-23.5147S84.2059,158.7243,82.3971,170.4816Z"/><path class="d" d="M67.9265,148.7757s.9044-20.8014,8.14-20.8014S72.4485,148.7757,67.9265,148.7757Z"/><path class="d" d="M106.8162,112.5993s-4.5221-21.7059,4.522-19.8971S106.8162,112.5993,106.8162,112.5993Z"/><path class="d" d="M114.0515,109.886s-13.5662-18.9926-3.6177-20.8014S112.2426,106.2684,114.0515,109.886Z"/><path class="d" d="M103.1985,102.6507s-1.8088-24.4191,7.2353-20.8014S103.1985,102.6507,103.1985,102.6507Z"/><path class="d" d="M29.64,136.7169s-14.1691-18.6912-6.9338-22.3088S31.1471,124.6581,29.64,136.7169Z"/><path class="d" d="M21.8015,135.21S7.3309,109.886,19.0882,108.0772,21.8015,135.21,21.8015,135.21Z"/><path class="d" d="M10.9485,131.5919s-7.2353-28.0368,5.4265-28.0368S10.9485,131.5919,10.9485,131.5919Z"/><path class="d" d="M26.0221,117.7243s-15.0736-22.3089-5.125-25.0221S26.0221,117.7243,26.0221,117.7243Z"/><path class="d" d="M10.9485,95.4154S.0956,73.71,14.5662,72.8051,10.0441,91.7978,10.9485,95.4154Z"/><path class="d" d="M7.3309,68.2831s0-23.5147,12.6617-20.8015S7.3309,68.2831,7.3309,68.2831Z"/><path class="d" d="M31.75,94.511s-21.7059-19.897-10.8529-22.61S31.75,94.511,31.75,94.511Z"/><path class="d" d="M111.0368,98.7316s-1.96-20.9522,4.3713-20.0478S111.0368,98.7316,111.0368,98.7316Z"/><path class="d" d="M107.7206,89.0846s-2.7132-24.4192,5.4265-22.61S107.7206,89.0846,107.7206,89.0846Z"/><path class="d" d="M119.4779,86.3713S109.8309,69.79,115.5588,67.68,119.4779,86.3713,119.4779,86.3713Z"/><path class="d" d="M116.7647,74.9154s-11.4559-19.897-4.8235-19.5955S119.4779,58.9375,116.7647,74.9154Z"/><path class="d" d="M100.4853,72.8051s.9044-23.5147,9.0441-21.7058S100.4853,72.8051,100.4853,72.8051Z"/><path class="d" d="M99.5809,60.1434s.9044-21.7059,9.0441-17.1838S99.5809,60.1434,99.5809,60.1434Z"/><path class="d" d="M75.1618,159.6287s-9.0442-23.5147,0-25.3236S75.1618,159.6287,75.1618,159.6287Z"/><path class="d" d="M82.0956,150.5846s-14.1691-21.7059-6.0294-22.61S83.6029,143.3493,82.0956,150.5846Z"/><path class="d" d="M86.9191,127.9743s-14.4706-9.9486-8.14-14.4706S86.9191,127.9743,86.9191,127.9743Z"/><path class="d" d="M76.3676,137.0184s-8.4411-17.1838-1.2058-20.8015S76.3676,137.0184,76.3676,137.0184Z"/><path class="d" d="M67.9265,127.07s0-17.1839,8.14-16.2795S67.9265,127.07,67.9265,127.07Z"/><path class="d" d="M14.8676,111.6949s-8.14-26.228,2.11-27.1324S14.8676,111.6949,14.8676,111.6949Z"/><path class="d" d="M21.5,104.1581s-10.5515-22.0074-2.4118-22.61S26.625,96.6213,21.5,104.1581Z"/><path class="d" d="M13.9632,85.7684S7.6324,58.636,17.8824,60.7463,13.9632,85.7684,13.9632,85.7684Z"/><path class="d" d="M26.3235,81.5478c-2.6151-4.8235-15.7745-25.0221-4.522-25.0221C30.8456,56.5257,26.3235,81.5478,26.3235,81.5478Z"/><path class="d" d="M29.0368,68.2831S15.4706,45.9743,22.7059,45.3713,33.5588,61.9522,29.0368,68.2831Z"/><path class="d" d="M28.1324,61.0478S23.61,43.864,29.0368,43.864,35.3676,54.7169,28.1324,61.0478Z"/><path class="d" d="M38.9853,42.96s-8.14,4.522-9.9485.9044S40.7941,38.4375,38.9853,42.96Z"/><path class="d" d="M22.7059,40.2463s-14.4706,6.3309-12.6618-.9044S22.7059,40.2463,22.7059,40.2463Z"/><path class="d" d="M36.2721,38.4375s-16.28,0-14.4706-2.7132S37.1765,30.2978,36.2721,38.4375Z"/><path class="d" d="M39.89,45.6728s-6.3309,9.0441-10.8529,7.2353S31.75,41.1507,39.89,45.6728Z"/><path class="d" d="M45.3162,47.4816s-14.4706,0-9.9486-5.4265S45.3162,42.96,45.3162,47.4816Z"/><path class="d" d="M87.8235,117.7243s-13.5661-10.5515-7.2353-20.5S86.9191,116.5184,87.8235,117.7243Z"/><path class="d" d="M87.8235,101.7463s-15.375-9.9485-9.9485-17.1838S87.8235,101.7463,87.8235,101.7463Z"/><path class="d" d="M70.64,120.739S64.3088,95.4154,73.3529,96.32,70.64,120.739,70.64,120.739Z"/><path class="d" d="M110.4338,29.3934S101.39,43.864,97.7721,42.0551,99.5809,29.3934,110.4338,29.3934Z"/><path class="d" d="M85.11,45.6728s10.8529.9044,9.0441-4.5221S86.9191,38.4375,85.11,45.6728Z"/><path class="d" d="M33.5588,39.3419S20.8971,33.011,19.0882,45.6728C19.0882,45.6728,33.5588,47.4816,33.5588,39.3419Z"/><path class="d" d="M44.4118,42.0551s-6.3309-10.25-13.5662-3.3161S44.4118,42.0551,44.4118,42.0551Z"/><path class="d" d="M105.9118,76.4228s-.9044-28.0368,9.9485-24.4191S105.9118,76.4228,105.9118,76.4228Z"/><path class="d" d="M79.6838,115.3125s-14.4706-21.7059-2.7132-22.61S79.6838,115.3125,79.6838,115.3125Z"/><path class="d" d="M116.1618,58.3346s-12.9633-18.0883-7.5368-18.0883S120.9853,42.96,116.1618,58.3346Z"/><path class="d" d="M61.5956,104.46S57.0735,80.9449,70.64,83.6581,61.5956,104.46,61.5956,104.46Z"/><path class="d" d="M71.5441,108.9816c.7034,1.1363-17.2843-17.7172,0-21.7059C83.3015,84.5625,71.5441,108.9816,71.5441,108.9816Z"/><path class="d" d="M79.6838,93.6066S60.6912,80.9449,73.3529,71.9007,79.6838,93.6066,79.6838,93.6066Z"/><path class="d" d="M69.7353,86.3713s-9.9485-19.897.9044-23.5147S69.7353,86.3713,69.7353,86.3713Z"/><path class="d" d="M60.6912,79.136s-5.4265-27.1323,6.3309-25.3235S60.6912,79.136,60.6912,79.136Z"/><path class="d" d="M79.6838,75.5184S65.2132,55.6213,72.4485,53.8125,86.0147,65.57,79.6838,75.5184Z"/><path class="d" d="M69.7353,73.71S59.7868,52.0037,70.64,49.29,69.7353,73.71,69.7353,73.71Z"/><path class="d" d="M54.36,65.57s-.9044-20.8015,9.0441-18.0883S54.36,65.57,54.36,65.57Z"/><path class="d" d="M62.5,63.761s-6.3309-23.5147,4.5221-22.61S62.5,63.761,62.5,63.761Z"/><path class="d" d="M77.875,60.1434S59.7868,45.6728,71.5441,40.2463,77.875,60.1434,77.875,60.1434Z"/><path class="d" d="M85.11,43.864s-22.61,0-16.2794-5.4265S86.0147,37.5331,85.11,43.864Z"/><path class="d" d="M53.4559,51.0993s5.4265-23.5147,18.0882-10.853C71.5441,40.2463,75.1618,45.6728,53.4559,51.0993Z"/><path class="d" d="M118.5735,37.5331S101.39,49.29,99.5809,40.2463,118.5735,37.5331,118.5735,37.5331Z"/><path class="d" d="M101.39,36.6287s-9.9485-3.6177-11.7573,3.6176S101.39,36.6287,101.39,36.6287Z"/><path class="d" d="M91.4412,52.0037s-1.8088-15.375,6.3309-9.9486S91.4412,52.0037,91.4412,52.0037Z"/></svg>