<svg xmlns="http://www.w3.org/2000/svg" xmlns:xlink="http://www.w3.org/1999/xlink" viewBox="0 0 82.7162 47.8581"><defs><style>.a,.b,.c,.d,.e,.f,.g,.h,.i,.j,.k,.l,.m{stroke:#000;}.a,.b,.c,.d,.e,.f,.g,.h,.i,.j,.k,.l{stroke-linecap:round;stroke-linejoin:round;stroke-width:2px;}.a{fill:url(#a);}.b{fill:url(#b);}.c{fill:url(#c);}.d{fill:url(#d);}.e{fill:url(#e);}.f{fill:url(#f);}.g{fill:url(#g);}.h{fill:url(#h);}.i{fill:url(#i);}.j{fill:url(#j);}.k{fill:url(#k);}.l{fill:url(#l);}.m{fill:#d6d5d0;stroke-miterlimit:10;stroke-width:1.7162px;}</style><linearGradient id="a" x1="24.1799" y1="16.3686" x2="29.672" y2="6.8559" gradientUnits="userSpaceOnUse"><stop offset="0" stop-color="#7ac943"/><stop offset="0.1028" stop-color="#7bcd5f"/><stop offset="0.3321" stop-color="#7cd597"/><stop offset="0.5445" stop-color="#7ddcc4"/><stop offset="0.7331" stop-color="#7ee0e4"/><stop offset="0.891" stop-color="#7fe3f8"/><stop offset="0.9988" stop-color="#7fe4ff"/></linearGradient><linearGradient id="b" x1="21.2356" y1="24.3293" x2="24.365" y2="18.9091" xlink:href="#a"/><linearGradient id="c" x1="57.5874" y1="27.5758" x2="65.7981" y2="13.3544" xlink:href="#a"/><linearGradient id="d" x1="52.8921" y1="21.5605" x2="63.0545" y2="3.9587" xlink:href="#a"/><linearGradient id="e" x1="45.1646" y1="8.6044" x2="48.3813" y2="3.0328" xlink:href="#a"/><linearGradient id="f" x1="37.1858" y1="12.3274" x2="42.3257" y2="3.4247" xlink:href="#a"/><linearGradient id="g" x1="22.2502" y1="18.6306" x2="26.1195" y2="11.9288" xlink:href="#a"/><linearGradient id="h" x1="30.7721" y1="17.4973" x2="37.6872" y2="5.5201" xlink:href="#a"/><linearGradient id="i" x1="48.8686" y1="16.8513" x2="56.1138" y2="4.3023" xlink:href="#a"/><linearGradient id="j" x1="38.1754" y1="28.7606" x2="49.7405" y2="8.7293" xlink:href="#a"/><linearGradient id="k" x1="43.1753" y1="34.9719" x2="53.4029" y2="17.257" xlink:href="#a"/><linearGradient id="l" x1="31.4518" y1="28.0101" x2="38.0021" y2="16.6647" xlink:href="#a"/></defs><title>hens-and-chicks</title><path class="a" d="M21.8581,5s0,11,7,14S32.8581,2,21.8581,5Z"/><path class="b" d="M29.8581,24s-17-10-16-11-4,7,11,13S29.8581,24,29.8581,24Z"/><path class="c" d="M54.8581,26s19-7,12-12S54.8581,26,54.8581,26Z"/><path class="d" d="M64.8581,5s1,14-12,15S64.8581,6,64.8581,5Z"/><path class="e" d="M44.8581,1s9,5,5,7S39.8581,8,44.8581,1Z"/><path class="f" d="M39.8581,2s-8,5-6,8,9,2,9,2S47.8581,10,39.8581,2Z"/><path class="g" d="M29.8581,19s-5-2-5-6-7-4-9-6,3,12,13,15S29.8581,19,29.8581,19Z"/><path class="h" d="M29.8581,1s-6,10-2,14a29.2558,29.2558,0,0,0,10,6s6-1-1-8c0,0,2-8-2-8S29.8581,1,29.8581,1Z"/><path class="i" d="M50.8581,18s13-6,8-12c0,0-6-2-5-3,0,0-3,2-5,2C48.8581,5,43.8581,8,50.8581,18Z"/><path class="j" d="M44.8581,6s-2,4-5,4-2,5-1,7-2,11-2,11h12s-5-7-3-10S51.8581,9,44.8581,6Z"/><path class="k" d="M50.8581,16s11,3-1,16S41.8581,18,50.8581,16Z"/><path class="l" d="M38.8581,29s8-7-1-11c0,0-3-2-3-3s-2,2-6,4-2,7,1,8A81.4418,81.4418,0,0,0,38.8581,29Z"/><path class="m" d="M.8581,26h81a0,0,0,0,1,0,0v9a12,12,0,0,1-12,12h-57a12,12,0,0,1-12-12V26A0,0,0,0,1,.8581,26Z"/></svg>