<svg xmlns="http://www.w3.org/2000/svg" xmlns:xlink="http://www.w3.org/1999/xlink" viewBox="0 0 112.1722 186.6312" width="112.1722" height="186.6312"><defs><style>.a,.b,.c,.d,.e,.f,.g,.h,.i,.j,.k,.l,.m,.n,.o,.p,.q,.r,.t{stroke:#000;stroke-linejoin:round;stroke-width:2px;}.a,.b,.c,.d,.e,.f,.g,.h,.i,.j,.k,.l,.m,.n,.o,.p,.q,.r{stroke-linecap:round;}.a{fill:url(#a);}.b{fill:#93b26b;}.c{fill:url(#b);}.d{fill:url(#c);}.e{fill:url(#d);}.f{fill:url(#e);}.g{fill:url(#f);}.h{fill:url(#g);}.i{fill:url(#h);}.j{fill:url(#i);}.k{fill:url(#j);}.l{fill:url(#k);}.m{fill:url(#l);}.n{fill:url(#m);}.o{fill:url(#n);}.p{fill:url(#o);}.q{fill:url(#p);}.r{fill:url(#q);}.s{fill:#dfe4e5;}.t{fill:#8e7355;}</style><linearGradient id="a" x1="72.8598" y1="54.8777" x2="98.9296" y2="54.8777" gradientUnits="userSpaceOnUse"><stop offset="0.4887" stop-color="#93b26b"/><stop offset="0.7151" stop-color="#95b16c"/><stop offset="0.7967" stop-color="#9cae70"/><stop offset="0.8548" stop-color="#a7a877"/><stop offset="0.9018" stop-color="#b89f81"/><stop offset="0.9421" stop-color="#ce948f"/><stop offset="0.9771" stop-color="#e9869f"/><stop offset="1" stop-color="#ff7bac"/></linearGradient><linearGradient id="b" x1="89.8598" y1="30.4192" x2="111.1722" y2="30.4192" xlink:href="#a"/><linearGradient id="c" x1="73.9248" y1="32.708" x2="73.9248" y2="80.6312" gradientUnits="userSpaceOnUse"><stop offset="0.5923" stop-color="#93b26b"/><stop offset="0.7732" stop-color="#92b169"/><stop offset="0.8383" stop-color="#8eaf62"/><stop offset="0.8848" stop-color="#87ab57"/><stop offset="0.9223" stop-color="#7ea646"/><stop offset="0.9545" stop-color="#719f30"/><stop offset="0.9824" stop-color="#629615"/><stop offset="1" stop-color="#568f00"/></linearGradient><linearGradient id="d" x1="67.3135" y1="64.686" x2="67.3135" y2="89.8957" gradientUnits="userSpaceOnUse"><stop offset="0.5923" stop-color="#93b26b"/><stop offset="0.7728" stop-color="#95b16c"/><stop offset="0.8379" stop-color="#9cae70"/><stop offset="0.8842" stop-color="#a7a877"/><stop offset="0.9217" stop-color="#b89f81"/><stop offset="0.9538" stop-color="#ce948f"/><stop offset="0.9817" stop-color="#e9869f"/><stop offset="1" stop-color="#ff7bac"/></linearGradient><linearGradient id="e" x1="78.4053" y1="53.9526" x2="78.4053" y2="40.9988" gradientUnits="userSpaceOnUse"><stop offset="0.2959" stop-color="#93b26b"/><stop offset="0.6077" stop-color="#95b16c"/><stop offset="0.72" stop-color="#9cae70"/><stop offset="0.8001" stop-color="#a7a877"/><stop offset="0.8648" stop-color="#b89f81"/><stop offset="0.9202" stop-color="#ce948f"/><stop offset="0.9684" stop-color="#e9869f"/><stop offset="1" stop-color="#ff7bac"/></linearGradient><linearGradient id="f" x1="89.5761" y1="25.6312" x2="89.5761" y2="1" xlink:href="#e"/><linearGradient id="g" x1="27.3133" y1="71.7819" x2="48.4198" y2="71.7819" gradientUnits="userSpaceOnUse"><stop offset="0.0013" stop-color="#ff7bac"/><stop offset="0.0461" stop-color="#e9869f"/><stop offset="0.1145" stop-color="#ce948f"/><stop offset="0.1931" stop-color="#b89f81"/><stop offset="0.2849" stop-color="#a7a877"/><stop offset="0.3984" stop-color="#9cae70"/><stop offset="0.5577" stop-color="#95b16c"/><stop offset="1" stop-color="#93b26b"/></linearGradient><linearGradient id="h" x1="1" y1="60.9073" x2="30.8598" y2="60.9073" xlink:href="#g"/><linearGradient id="i" x1="36.8598" y1="16.8006" x2="54.1664" y2="16.8006" xlink:href="#a"/><linearGradient id="j" x1="12.4599" y1="21.5561" x2="38.4534" y2="21.5561" xlink:href="#g"/><linearGradient id="k" x1="66.8858" y1="23.4012" x2="77.8598" y2="23.4012" xlink:href="#g"/><linearGradient id="l" x1="49.2017" y1="15.2688" x2="49.2017" y2="105.7469" xlink:href="#c"/><linearGradient id="m" x1="38.6594" y1="64.1383" x2="60.843" y2="64.1383" xlink:href="#a"/><linearGradient id="n" x1="45.7499" y1="41.8815" x2="67.9696" y2="41.8815" xlink:href="#a"/><linearGradient id="o" x1="34.1289" y1="25.0191" x2="34.1289" y2="3.7686" xlink:href="#e"/><linearGradient id="p" x1="20.029" y1="45.4312" x2="20.029" y2="30.3812" xlink:href="#e"/><linearGradient id="q" x1="38.5562" y1="36.9592" x2="38.5562" y2="53.1317" xlink:href="#d"/></defs><title>jade-plant</title><path class="a" d="M90.86,60.6312s13,1,6-8-24,2-24,2Z"/><path class="b" d="M72.86,54.6312s11,12,17,11,4-2,3-8S72.86,54.6312,72.86,54.6312Z"/><path class="b" d="M94.86,26.6312s18-7,7-20c0,0-2-3-2,5S92.86,23.6312,94.86,26.6312Z"/><path class="c" d="M89.86,36.6312s20,2,21-4,0-14-9-4S89.86,36.6312,89.86,36.6312Z"/><path class="d" d="M55.86,80.6312s19-24,20-26,13-15,16-17,4-10-5,0-23,21-23,25-10,13-10,13Z"/><path class="e" d="M67.86,89.6312s7-3,4-16-6-8-6-8-6,12-3,19S67.86,89.6312,67.86,89.6312Z"/><path class="b" d="M76.9,55.0381a3.9341,3.9341,0,0,0-6.2111,1.9029,5.5289,5.5289,0,0,0,.1705,3.69,11.3692,11.3692,0,0,0,10,7c3,0,3-2,1-7C80.8675,58.1505,78.6444,56.4082,76.9,55.0381Z"/><path class="f" d="M80.8407,41.0211a4.9864,4.9864,0,0,1,4.7063,5.4317c-.4021,4.2585-2.115,9.8788-8.6872,6.4284a17.8421,17.8421,0,0,1-4.0791-2.8026,4.9821,4.9821,0,0,1,2.2886-8.4432A20.5126,20.5126,0,0,1,80.8407,41.0211Z"/><path class="b" d="M87.86,40.6312s2,6,18,3-15-4-18-5S87.86,40.6312,87.86,40.6312Z"/><path class="g" d="M92.86,25.6312s6-15,1-20-7-8-10,2S90.86,19.6312,92.86,25.6312Z"/><path class="b" d="M109.86,21.6312s-2,4-17,4c0,0-1-9,10-11S109.86,21.6312,109.86,21.6312Z"/><path class="b" d="M83.86,33.6312s13,3,13-3-2-9-9-2S83.86,33.6312,83.86,33.6312Z"/><path class="h" d="M45.86,62.6312s-6,13-14,13-4,8,1,7,13-6,15-16S45.86,62.6312,45.86,62.6312Z"/><path class="i" d="M30.86,55.6312s-5,17-23,8,5-9,6-7S30.86,55.6312,30.86,55.6312Z"/><path class="b" d="M59.86,32.6312s-6-12-11-11,7,13,9,13A1.9588,1.9588,0,0,0,59.86,32.6312Z"/><path class="j" d="M36.86,29.6312s20-7,17-21-8,8-8,8S40.86,29.6312,36.86,29.6312Z"/><path class="k" d="M35.86,23.6312s-6,3-10,0-11-10-13-9,4,9,7,10,5,6,14,3S35.86,23.6312,35.86,23.6312Z"/><path class="l" d="M77.86,30.6312s-6-15-10-16,5.5,17,7.25,17.5S77.86,30.6312,77.86,30.6312Z"/><path class="b" d="M76.88,41.6693a2.0919,2.0919,0,0,1-3.0916-1.8125c-.0769-5.9139.182-19.2256,4.0713-19.2256,5,0,8,5,6,8C82.1514,31.1937,81.9023,38.8637,76.88,41.6693Z"/><path class="b" d="M79.36,40.6312s7.5-6.5,5-8.75S79.36,40.6312,79.36,40.6312Z"/><path class="b" d="M51.86,43.6312s6-15.5,8.5-8.25S51.86,43.6312,51.86,43.6312Z"/><path class="b" d="M61.86,32.6312s8-9,3-14S54.86,31.6312,61.86,32.6312Z"/><path class="b" d="M35.86,27.6312s10-1,11-8S33.86,16.6312,35.86,27.6312Z"/><path class="m" d="M64.86,103.6312s0-7-2-9-5-23-5-23-21-42-19-53-9,8-4,14,7,17,9,27,6,16,7,19,0,16-1,19-1,4,0,7S64.86,103.6312,64.86,103.6312Z"/><path class="b" d="M53.86,62.6312s4-7-2-12S37.86,59.6312,53.86,62.6312Z"/><path class="b" d="M44.86,54.6312s-3,9-11,3S47.86,34.6312,44.86,54.6312Z"/><path class="b" d="M51.86,46.6312s23,8,12,12S51.86,46.6312,51.86,46.6312Z"/><path class="n" d="M59.34,71.57a1.458,1.458,0,0,0,1.0765-2.486c-5.5358-5.579-18.7516-17.7611-21.3065-9.7032C36.1718,68.6473,48.1481,71.1712,59.34,71.57Z"/><path class="o" d="M45.86,48.6312s20,1,22-10S43.86,45.6312,45.86,48.6312Z"/><path class="p" d="M33.86,24.8812s-8-14.25-4-19.25,12,1,9,7S36.86,26.1312,33.86,24.8812Z"/><path class="b" d="M34.11,51.8812s.75-11.25-12.25-6.25-1.25,10.25-1.25,10.25S33.36,60.1312,34.11,51.8812Z"/><path class="q" d="M22.86,31.6312s-15-5-13,5,14.5,8.75,14.5,8.75S38.86,44.6312,22.86,31.6312Z"/><path class="b" d="M54.86,38.6312s12,4,13-4-10-6-10-3S52.86,37.6312,54.86,38.6312Z"/><path class="b" d="M48.86,47.6312s6-8,0-15-6,6-5,8S45.86,46.6312,48.86,47.6312Z"/><path class="r" d="M34.8281,50.7825a3.0818,3.0818,0,0,0,5.2131,1.4011c2.2868-2.4077,4.3949-6.5919.8186-12.5524C36.0128,31.5529,33.1236,43.7049,34.8281,50.7825Z"/><path class="s" d="M24.9155,163.1312a3.7741,3.7741,0,0,1-3.7735-3.5986l-2.5449-53.4444a3.7774,3.7774,0,0,1,3.7734-3.957H91.2328a3.7774,3.7774,0,0,1,3.7735,3.957l-2.5449,53.4444a3.7725,3.7725,0,0,1-3.7735,3.5986Z"/><path d="M91.233,103.1312a2.7775,2.7775,0,0,1,2.7744,2.91l-2.5449,53.4447a2.7743,2.7743,0,0,1-2.7745,2.6455H24.9153a2.7742,2.7742,0,0,1-2.7744-2.6455l-2.545-53.4448a2.7775,2.7775,0,0,1,2.7744-2.91H91.233m0-2H22.37a4.7777,4.7777,0,0,0-4.7722,5.0049l2.545,53.4447a4.7777,4.7777,0,0,0,4.7722,4.55H88.688a4.7777,4.7777,0,0,0,4.7722-4.55l2.545-53.4447a4.7777,4.7777,0,0,0-4.7722-5.0049Z"/><path class="t" d="M23.86,134.6312l5,51h5v-16.5l10.5518-3.869a.8412.8412,0,0,0-.29-1.631H33.86v-29Z"/><path class="t" d="M89.9642,134.6312l-5,51h-5v-16.5l-10.5519-3.869a.8412.8412,0,0,1,.29-1.631H79.9642v-29Z"/></svg>