<svg xmlns="http://www.w3.org/2000/svg" viewBox="0 0 142 169"><defs><style>.a{fill:#8f9945;}.a,.b,.c{stroke:#000;stroke-miterlimit:10;stroke-width:2px;}.b{fill:#9cb26b;}.c{fill:#897d37;}.d{fill:#eae2df;}</style></defs><title>milk-tree</title><path class="a" d="M91.8266,56.99s-15.25-7.0385-11.7309-11.7309S91.8266,56.99,91.8266,56.99Z"/><path class="a" d="M94.1728,52.2972S80.0957,41.7394,84.788,37.047,94.1728,52.2972,94.1728,52.2972Z"/><path class="a" d="M96.5189,47.6048S87.1342,37.047,87.1342,28.8354s7.0988-4.5118,8.2116-1.1731C96.5189,31.1816,96.5189,35.8739,96.5189,47.6048Z"/><path class="a" d="M103.5575,55.8164S123.5,58.1626,123.5,52.2972,116.4615,48.7779,103.5575,55.8164Z"/><path class="a" d="M101.2113,51.1241s18.7694-8.2116,16.4233-14.0771S101.2113,51.1241,101.2113,51.1241Z"/><path class="a" d="M100.0382,47.6048s19.9425-16.4232,15.25-19.9425S104.7306,37.047,100.0382,47.6048Z"/><path class="a" d="M98.8651,47.6048s-1.1731-18.7694,4.6924-18.7694S108.25,38.22,98.8651,47.6048Z"/><path class="b" d="M90.0273,58.8284l-2.205.0393,1.7832,1.2884q-.2229.7164-.4424,1.46L86.999,61.71l1.7838,1.2209q-.2289.8072-.454,1.64L86.2,64.71l1.7823,1.1634q-.2311.888-.4578,1.8008l-2.0965.1773,1.7795,1.1135q-.2305.9594-.4556,1.9425l-2.0674.2105,1.78,1.0717q-.2271,1.0215-.4484,2.0626l-2.0444.24L85.75,75.5261q-.2214,1.0733-.4362,2.1641l-2.0229.2667,1.7761.9991q-.214,1.116-.42,2.2472l-2.0023.291,1.7745.9675q-.2049,1.1507-.4024,2.3113l-1.9819.3133,1.774.9387q-.194,1.1745-.38,2.3554l-1.9654.335,1.7726.9109q-.1818,1.19-.3545,2.3814l-1.9487.3557,1.77.8837q-.1684,1.1955-.3267,2.3895l-1.9313.3756,1.77.8579q-.1539,1.1916-.2985,2.3784l-1.9141.3953,1.7691.8325q-.1383,1.1789-.2663,2.3483l-1.8986.4156,1.7674.8063q-.1217,1.1574-.2322,2.3007l-1.882.4362,1.7649.7792q-.1044,1.1269-.1968,2.2355l-1.8635.4575,1.7653.7521q-.0861,1.0853-.1616,2.151l-1.8455.48,1.7648.7233q-.0677,1.0365-.1238,2.0489l-1.8269.5048,1.7633.6919q-.07,1.4113-.1165,2.7668l-2.9477.8679,2.8919,1.0791c-.0167.7567-.0263,1.4939-.0305,2.2164l-2.9187.92,2.9238,1.0281c.0072.6684.02,1.321.0393,1.9519L77.162,129.45l3.0669,1.0032c.0969,1.7.2455,3.2312.4533,4.5471h4.7217c.6-30.3571,12.56-58.6532,13.9863-89.06C96.1457,44.6346,92.9031,50.03,90.0273,58.8284Z"/><path class="c" d="M106.9321,67.29l-1.7476-.6393q.021-.944.0212-1.8634l1.7606-.603-1.7711-.5743q-.015-.9141-.0536-1.7991l1.7678-.6936-1.8328-.5064q-.0528-.82-.1287-1.61l1.7727-.8057-1.9069-.42a22.4232,22.4232,0,0,0-3.0159-9.5844A5.6565,5.6565,0,0,0,99.39,45.94C97.9642,76.3468,86.0037,104.6429,85.4039,135H91.24s.6415-1.9929,1.6479-5.381l3.1976-.1423-2.6278-1.794q.2319-.7951.4809-1.662l2.8236-.1416-2.3345-1.5745q.284-1.0039.5828-2.08l2.4667-.1387-2.052-1.3659q.3291-1.201.6693-2.4709l2.1271-.1335-1.7806-1.1686q.2136-.8074.43-1.6395l2.1158-.1478-1.78-1.1508q.2261-.8806.4537-1.7822l2.1038-.1631-1.78-1.1315q.2348-.9438.47-1.9068l2.0912-.1794-1.78-1.1108q.2394-.9982.4774-2.0132l2.0775-.197L99.54,104.4364q.24-1.0437.4775-2.1016l2.0626-.216-1.7788-1.0642q.2376-1.08.47-2.1719l2.0463-.2366L101.04,97.6084q.2311-1.1084.455-2.2245l2.0285-.2589-1.7765-1.0089q.2211-1.1277.4326-2.2593l2.0088-.2833-1.7748-.9775q.2075-1.1384.4031-2.2767l1.9871-.31-1.7727-.9429q.1905-1.1406.3666-2.2767l1.963-.339-1.7715-.9055q.17-1.1336.3248-2.2591l1.9362-.3711-1.77-.8642q.1462-1.1179.2771-2.2247l1.9061-.4066-1.769-.8184q.12-1.0938.2226-2.1736l1.8735-.4463-1.7674-.7674q.09-1.0622.1611-2.1061l1.8384-.4913-1.7662-.71q.0588-1.051.0965-2.0793Z"/><path class="a" d="M42.2941,29.8684S59.0364,21.5471,55.1728,16,42.2941,29.8684,42.2941,29.8684Z"/><path class="a" d="M44.7632,36.6971s19.0439-5.6542,16.3939-12.7458S44.7632,36.6971,44.7632,36.6971Z"/><path class="a" d="M40.6619,30.5042s10.303-12.4819,10.303-22.19S43.1715,2.98,41.95,6.9272C40.6619,11.0879,40.6619,16.6354,40.6619,30.5042Z"/><path class="a" d="M41.1463,36.6931s-21.8938,2.7738-21.8938-4.1606S26.98,28.3718,41.1463,36.6931Z"/><path class="a" d="M39.03,33.4918S18.4237,23.7836,21,16.8492,39.03,33.4918,39.03,33.4918Z"/><path class="a" d="M40.7731,29.4375s-12.62-26.4021-6.256-28.2319C40.8309-.61,40.9311,9.6639,40.7731,29.4375Z"/><path class="a" d="M40.3065,29.588S34.2383,8.2049,28.1558,10.3189,26.9322,22.49,40.3065,29.588Z"/><path class="c" d="M50.1348,41.4271l2.4209.0464L50.598,42.9968q.2447.8469.4856,1.7262l2.3759.1108-1.9583,1.4435q.2513.9542.4984,1.9389l2.3366.1643L52.38,49.7559q.2538,1.05.5026,2.129l2.3016.21L53.23,53.4109q.253,1.1343.5,2.2966l2.27.2489-1.9539,1.267q.2494,1.2075.4924,2.4384l2.2444.2838-1.9524,1.2223q.2432,1.2689.4788,2.5584l2.221.3154-1.95,1.1811q.2349,1.32.4612,2.6568l2.1982.344-1.9481,1.1439q.2248,1.36.4418,2.7325l2.1758.37-1.9476,1.11q.213,1.3885.417,2.7847l2.1577.396-1.946,1.0769q.2,1.4063.3892,2.8155l2.1393.4205-1.9434,1.0446q.1851,1.4134.3587,2.8251l2.12.4441-1.9427,1.0142q.1689,1.4088.3277,2.8119l2.1014.4673-1.9421.9841q.1517,1.3938.2922,2.7763l2.0845.4914-1.94.9533q.1337,1.3681.2549,2.72l2.0662.5158-1.9377.9211q.1146,1.3324.2161,2.643l2.0459.5408-1.938.8892q.0945,1.2831.1774,2.543l2.026.5677-1.9374.8551q.0741,1.2255.1359,2.4223l2.0057.5969-1.9359.8179q.0767,1.6687.1279,3.2711l3.2361,1.0261-3.1748,1.2758c.0183.8945.0288,1.7661.0335,2.62L64.2411,120.2l-3.21,1.2156c-.008.79-.0218,1.5616-.0432,2.3075l3.2709,1.1961-3.367,1.1861c-.1064,2.01-.27,3.82-.4977,5.3757H55.2106c-.6584-35.89-13.7892-69.3425-15.3548-105.29C43.4178,24.6466,46.9777,31.0247,50.1348,41.4271Z"/><path class="b" d="M31.576,51.4312l1.9186-.7557q-.0229-1.116-.0233-2.2031L31.5385,47.76l1.9443-.679q.0165-1.0806.0589-2.1269l-1.9408-.82,2.0122-.5987q.0579-.9691.1413-1.9029l-1.9462-.9526,2.0935-.4968c.5326-4.643,1.583-8.54,3.311-11.3311A6.4053,6.4053,0,0,1,39.8558,26.19c1.5656,35.9479,14.6964,69.4009,15.3548,105.29H48.8035s-.7042-2.3561-1.8091-6.3616l-3.51-.1683,2.8849-2.121q-.2547-.94-.528-1.9648l-3.1-.1675,2.5629-1.8614q-.3117-1.1868-.64-2.4591l-2.708-.164,2.2527-1.6148c-.2408-.9467-.4855-1.9184-.7348-2.9213l-2.3352-.1578,1.9548-1.3816q-.2345-.9546-.472-1.9383l-2.3227-.1748,1.9546-1.36q-.2482-1.0412-.4982-2.1071l-2.31-.1927L41.4,103.0265q-.2577-1.116-.5155-2.2544l-2.2957-.2121,1.9541-1.3132q-.2628-1.18-.5241-2.38l-2.2808-.233,1.9536-1.2867q-.2638-1.2339-.5241-2.4845l-2.2645-.2555,1.9528-1.2581q-.2608-1.2772-.516-2.5677l-2.2464-.28,1.9517-1.2268q-.2538-1.31-.5-2.63l-2.227-.3062,1.95-1.1928q-.2427-1.333-.4749-2.671L34.5887,80.14l1.9485-1.1557q-.2278-1.3458-.4426-2.6915l-2.1815-.3663,1.9462-1.1147q-.2091-1.3485-.4025-2.6917l-2.1551-.4008,1.9449-1.07q-.1867-1.34-.3567-2.6709l-2.1255-.4386,1.9435-1.0217q-.1607-1.3218-.3042-2.63l-2.0927-.4807,1.9421-.9676q-.1311-1.2931-.2444-2.57l-2.0568-.5277,1.94-.9072q-.0985-1.2557-.1769-2.49l-2.0183-.5808,1.9391-.84q-.0647-1.2426-.106-2.4582Z"/><path class="d" d="M32,168c-17.9624,0-31-11.7754-31-28,0-11.957,6.5215-14.1445,19.3657-14.1445,1.7388,0,3.5518.0341,5.4234.0683C27.7983,125.9619,29.875,126,32,126h78c2.124,0,4.2012-.0381,6.2109-.0762,1.8721-.0342,3.6846-.0683,5.4229-.0683C134.4785,125.8555,141,128.043,141,140c0,16.2246-13.0371,28-31,28Z"/><path d="M121.6347,126.8558c12.7,0,18.3653,1.8978,18.3653,13.1442a25.2191,25.2191,0,0,1-8.6857,19.6189C125.8463,164.3787,118.2768,167,110,167H32c-8.2768,0-15.8463-2.6213-21.3143-7.3811A25.2191,25.2191,0,0,1,2,140c0-11.2462,5.6656-13.144,18.3678-13.1442,1.7261,0,3.5124.0332,5.4035.0683C27.7828,126.9614,29.8628,127,32,127h78c2.1372,0,4.2178-.0386,6.23-.0759,1.8918-.0351,3.6787-.0683,5.4047-.0683m0-2c-3.6059,0-7.53.1442-11.6347.1442H32c-4.1055,0-8.028-.1443-11.6347-.1442C8.4461,124.856,0,126.4323,0,140H0c0,17.6731,14.3269,29,32,29h78c17.6731,0,32-11.3269,32-29h0c0-13.5687-8.4446-15.1442-20.3653-15.1442Z"/></svg>