<svg xmlns="http://www.w3.org/2000/svg" xmlns:xlink="http://www.w3.org/1999/xlink" viewBox="0 0 117.0671 224.8475" width="117.0671" height="224.8475"><defs><style>.a,.f{fill:none;}.b{fill:#8ea022;stroke-linecap:round;stroke-linejoin:round;}.b,.f{stroke:#000;stroke-width:2px;}.c{clip-path:url(#a);}.d{fill:#d8af87;}.e{fill:#c99b65;}.f{stroke-miterlimit:10;}.g{fill:#d6dbb9;}</style><clipPath id="a"><path class="a" d="M52.2693,42.8475s4-1,4,8,9,17,8,27-9,42-3,44,18,18,18,22-50,1-50,1,1-25,11-30,19-35,16-46S41.2693,43.8475,52.2693,42.8475Z"/></clipPath></defs><title>ponytail-palm</title><path class="b" d="M46.2693,35.8475s-14-25-26-25-19,10-19,10,6-3,16-2S36.2693,26.8475,46.2693,35.8475Z"/><path class="b" d="M39.2693,89.8475s-28-41,1-48C40.2693,41.8475,20.2693,49.8475,39.2693,89.8475Z"/><path class="b" d="M54.2693,38.8475s14-23,44-11,13,32,13,32,7-20-9-25S78.2693,25.8475,54.2693,38.8475Z"/><path class="b" d="M90.2693,76.8475s19.5-37-38.25-37c0,0,8.25-8,29.25,1S93.2693,74.8475,90.2693,76.8475Z"/><path class="b" d="M48.2693,45.8475s-14-8-6,29C42.2693,74.8475,30.2693,34.8475,48.2693,45.8475Z"/><path class="b" d="M54.2693,43.8475s8-9,22,7,0,35-1,36,20-17,1-41S54.2693,43.8475,54.2693,43.8475Z"/><path class="b" d="M50.2693,42.8475s-11-24-36-9-7,39-7,39-10-24,2-31S31.2693,27.8475,50.2693,42.8475Z"/><path class="b" d="M52.2693,43.8475s1-27,25-23C77.2693,20.8475,61.2693,18.8475,52.2693,43.8475Z"/><path class="b" d="M94.2693,22.8475s-14-24-34-19-16.5,25.5-11.25,34.75-23.75-23.75,1.25-34.75S92.2693,16.8475,94.2693,22.8475Z"/><path class="b" d="M51.2693,44.8475s-9-23,5-29,29,2,31,4c0,0-14-6-25-2S51.2693,27.8475,51.2693,44.8475Z"/><path class="b" d="M49.2693,43.8475s-16-11-27-2-12,33,1,46c0,0-12-24-5-32S27.2693,39.8475,49.2693,43.8475Z"/><g class="c"><rect class="d" x="24.2693" y="35.8475" width="58" height="9.6471"/><rect class="e" x="24.2693" y="45.4946" width="58" height="9.6471"/><rect class="d" x="24.2693" y="53.1318" width="58" height="9.6471"/><rect class="e" x="24.2693" y="62.7789" width="58" height="9.6471"/><rect class="d" x="24.2693" y="70.4161" width="58" height="9.6471"/><rect class="e" x="24.2693" y="80.0632" width="58" height="9.6471"/><rect class="d" x="24.2693" y="87.7004" width="58" height="9.6471"/><rect class="e" x="24.2693" y="97.3475" width="58" height="9.6471"/><rect class="d" x="24.2693" y="104.9848" width="58" height="9.6471"/><rect class="e" x="24.2693" y="114.6318" width="58" height="9.6471"/><rect class="d" x="24.2693" y="122.2691" width="58" height="9.6471"/><rect class="e" x="24.2693" y="131.9161" width="58" height="9.6471"/><rect class="d" x="24.2693" y="139.5534" width="58" height="9.6471"/><rect class="e" x="24.2693" y="149.2004" width="58" height="9.6471"/></g><path class="f" d="M52.2693,42.8475s4-1,4,8,9,17,8,27-9,42-3,44,18,18,18,22-50,1-50,1,1-25,11-30,19-35,16-46S41.2693,43.8475,52.2693,42.8475Z"/><path class="g" d="M26.0847,223.8475a5.0416,5.0416,0,0,1-4.9321-3.917l-17.18-73.8721a5.0643,5.0643,0,0,1,4.9321-6.2109H99.6335a5.0647,5.0647,0,0,1,4.9327,6.2109l-17.18,73.8721a5.0419,5.0419,0,0,1-4.9326,3.917Z"/><path d="M99.6336,140.8475a4.0638,4.0638,0,0,1,3.9581,4.9842l-17.18,73.8725a4.0464,4.0464,0,0,1-3.9581,3.1433H26.0847a4.0464,4.0464,0,0,1-3.9581-3.1432l-17.18-73.8726a4.0638,4.0638,0,0,1,3.9581-4.9842H99.6336m0-2H8.905a6.0637,6.0637,0,0,0-5.9061,7.4373l17.18,73.8725a6.0639,6.0639,0,0,0,5.9062,4.69H82.4539a6.0637,6.0637,0,0,0,5.9061-4.69l17.18-73.8725a6.0638,6.0638,0,0,0-5.9061-7.4373Z"/></svg>