<svg xmlns="http://www.w3.org/2000/svg" viewBox="0 0 122 162" width="112" height="162"><defs><style>.a{fill:#7ea865;}.a,.b,.c{stroke:#000;stroke-linecap:round;stroke-linejoin:round;stroke-width:2px;}.b{fill:#a7ce8e;}.c{fill:none;}.d{fill:#f2aac2;}.e{fill:#e56eb3;}</style></defs><title>zebra-haworthia</title><path class="a" d="M37.5,84.5S30,67,8,62c0,0,18,22,18,27Z"/><path class="a" d="M95,88s16-34,26-41c0,0-29,5-57,38Z"/><path class="a" d="M70,95S85,39,69,1c0,0-27,82-20,99Z"/><path class="b" d="M77,92s32-55,19-75c0,0-29,59-45,73Z"/><path class="a" d="M37,89S7,29,1,25c0,0,44,26,56.5,63.5Z"/><path class="b" d="M42,95S29,27,34,5c0,0,23,35,31,88.5Z"/><line class="c" x1="61" y1="76" x2="51" y2="76"/><line class="c" x1="50" y1="69" x2="38" y2="69"/><line class="c" x1="57" y1="60" x2="45" y2="60"/><line class="c" x1="46" y1="51" x2="36" y2="51"/><line class="c" x1="51" y1="40" x2="43" y2="40"/><line class="c" x1="42" y1="30" x2="34" y2="30"/><line class="c" x1="42" y1="21" x2="38" y2="21"/><line class="c" x1="35" y1="14" x2="34" y2="14"/><line class="c" x1="39" y1="40" x2="35" y2="40"/><line class="c" x1="54" y1="51" x2="50" y2="51"/><line class="c" x1="59" y1="69" x2="55" y2="69"/><line class="c" x1="41" y1="60" x2="37" y2="60"/><line class="c" x1="45" y1="76" x2="39" y2="76"/><line class="c" x1="25" y1="70" x2="19" y2="70"/><line class="c" x1="37" y1="65" x2="31" y2="65"/><line class="c" x1="26" y1="54" x2="20" y2="54"/><line class="c" x1="17" y1="37" x2="15" y2="37"/><line class="c" x1="101" y1="75" x2="93" y2="75"/><line class="c" x1="107" y1="65" x2="98" y2="65"/><line class="c" x1="105" y1="56" x2="99" y2="56"/><line class="c" x1="20" y1="46" x2="16" y2="46"/><line class="c" x1="35" y1="54" x2="31" y2="54"/><line class="c" x1="36" y1="79" x2="33" y2="79"/><line class="c" x1="27" y1="78" x2="21" y2="78"/><line class="c" x1="75" y1="78" x2="63" y2="78"/><line class="c" x1="74" y1="58" x2="65" y2="58"/><line class="c" x1="68" y1="48" x2="56" y2="48"/><line class="c" x1="75" y1="37" x2="67" y2="37"/><line class="c" x1="69" y1="28" x2="61" y2="28"/><line class="c" x1="74" y1="20" x2="68" y2="20"/><line class="c" x1="69" y1="13" x2="66" y2="13"/><line class="c" x1="63" y1="37" x2="59" y2="37"/><line class="c" x1="76" y1="48" x2="72" y2="48"/><line class="c" x1="84" y1="78" x2="80" y2="78"/><line class="c" x1="61" y1="58" x2="57" y2="58"/><line class="c" x1="66" y1="66" x2="60" y2="66"/><line class="c" x1="73" y1="70" x2="67" y2="70"/><line class="c" x1="91" y1="61" x2="83" y2="61"/><line class="c" x1="95" y1="51" x2="87" y2="51"/><line class="c" x1="79" y1="61" x2="73" y2="61"/><line class="c" x1="87" y1="70" x2="78" y2="70"/><line class="c" x1="94" y1="27" x2="91" y2="27"/><line class="c" x1="98" y1="35" x2="91" y2="35"/><line class="c" x1="91" y1="43" x2="83" y2="43"/><line class="c" x1="83" y1="51" x2="79" y2="51"/><path class="d" d="M16.7339,167a1.9914,1.9914,0,0,1-1.9917-1.8145L8.4883,97.9541a1,1,0,0,0-.8545-.8975l-2.9854-.4257L2.1958,83H114.87l-1.624,13.2783-2.916.8145a.9982.9982,0,0,0-.7256.8691l-6.3428,67.2266A1.9925,1.9925,0,0,1,101.27,167Z"/><path d="M113.74,84l-1.4065,11.4942-2.2729.6354a2,2,0,0,0-1.4527,1.7383l-6.343,67.226A.9957.9957,0,0,1,101.27,166H16.7339a.9956.9956,0,0,1-.9957-.9074L9.4842,97.8619a2,2,0,0,0-1.709-1.7947l-2.27-.3239L3.392,84H113.74M116,82H1L3.6646,96.8084a1,1,0,0,0,.8429.8129l2.9853.4259,6.254,67.2307A3,3,0,0,0,16.7339,168H101.27a3,3,0,0,0,2.9868-2.7182l6.343-67.226,2.9153-.8151a1,1,0,0,0,.7233-.8416L116,82Z"/><polygon class="e" points="7.233 97 4.649 96.631 2.196 83 114.87 83 113.246 96.278 110.662 97 7.233 97"/><path d="M113.74,84l-1.4065,11.4942L110.5245,96H7.304l-1.799-.2567L3.392,84H113.74M116,82h0Zm0,0H1L3.6646,96.8084a1,1,0,0,0,.843.8129L7.162,98H110.7988l2.716-.7593a1,1,0,0,0,.7233-.8417L116,82Z"/><path class="e" d="M16.7339,167a1.9915,1.9915,0,0,1-1.9917-1.8154L11.3765,129h95.2993l-3.4141,36.1885A1.9925,1.9925,0,0,1,101.27,167Z"/><path d="M105.5765,130l-3.3112,35.0939A.9957.9957,0,0,1,101.27,166H16.7339a.9956.9956,0,0,1-.9957-.9074L12.4737,130h93.1028m2.1976-2h0Zm0,0H10.2791l3.4677,37.2778A3,3,0,0,0,16.7339,168H101.27a3,3,0,0,0,2.9868-2.7182L107.7741,128Z"/></svg>