<svg xmlns="http://www.w3.org/2000/svg" viewBox="0 0 162.55 99.89"><defs><style>.a{fill:#b0d6d2;}</style></defs><title>favicon</title><path class="a" d="M68.13,97.39C60.13,86.91,51,71.7,51,57c0-7.33,2.8-27.23,28.72-53.76a2.51,2.51,0,0,1,1.78-.75,2.47,2.47,0,0,1,1.78.75C109.18,29.78,112,49.68,112,57c0,14.69-9.16,29.9-17.16,40.38Z"/><path d="M81.47,5A138.91,138.91,0,0,1,98.74,26.58C105.86,37.79,109.47,48,109.47,57c0,13.55-8.32,27.76-15.89,37.88H69.37C61.8,84.77,53.47,70.56,53.47,57c0-9,3.62-19.22,10.74-30.43A139.58,139.58,0,0,1,81.47,5m0-5a5,5,0,0,0-3.56,1.5C69.37,10.24,48.47,34,48.47,57c0,15.6,9.59,31.51,18.43,42.88H96.05c8.84-11.37,18.42-27.28,18.42-42.88C114.47,34,93.58,10.24,85,1.5A5,5,0,0,0,81.47,0Z"/><path class="a" d="M82.39,97.39c1.59-14.51,5.84-33,16.82-44,5.18-5.18,21.23-17.27,58.32-17.7h0a2.48,2.48,0,0,1,1.8.74,2.44,2.44,0,0,1,.72,1.78c-.43,37.08-12.52,53.14-17.7,58.32-.28.28-.57.55-.86.82Z"/><path d="M157.55,38.23a138.55,138.55,0,0,1-3,27.46c-2.9,13-7.58,22.76-13.93,29.11l-.09.09H85.2c2.9-22.52,10.07-34,15.78-39.69,6.35-6.35,16.14-11,29.11-13.93a138.55,138.55,0,0,1,27.46-3m0-5h-.06c-12.21.14-43.77,2.15-60.06,18.44C85.11,64,81,85.07,79.62,99.89h62.84c.56-.51,1.12-1,1.65-1.56,16.29-16.28,18.3-47.84,18.44-60a5,5,0,0,0-5-5.05Z"/><path class="a" d="M21.06,97.39c-.29-.27-.58-.54-.86-.82C15,91.39,2.93,75.33,2.5,38.25A2.49,2.49,0,0,1,5,35.73c37.11.43,53.17,12.52,58.35,17.7,11,11,15.23,29.45,16.82,44Z"/><path d="M5,38.23a138.71,138.71,0,0,1,27.47,3c13,2.9,22.76,7.58,29.11,13.93,5.71,5.71,12.88,17.17,15.78,39.69H22.06L22,94.8C15.62,88.45,10.94,78.66,8,65.69A140.61,140.61,0,0,1,5,38.23H5m0-5a5,5,0,0,0-5,5.05C.14,50.49,2.15,82.05,18.44,98.33c.53.54,1.09,1,1.65,1.56H82.93C81.58,85.07,77.43,64,65.1,51.67c-16.28-16.29-47.84-18.3-60-18.44Z"/></svg>