<svg xmlns="http://www.w3.org/2000/svg" viewBox="0 0 40.0449 30.8045"><defs><style>.a{fill:#b0d6d2;}.b{fill:#fff;stroke:#000;stroke-miterlimit:10;stroke-width:1.0449px;}</style></defs><title>logo_2</title><path class="a" d="M16.8691,20.2821c-1.6679-2.1836-3.5791-5.355-3.5791-8.4214,0-4.5825,4.1827-9.3579,5.981-11.1983a.5377.5377,0,0,1,.77,0c1.7984,1.84,5.981,6.6158,5.981,11.1983,0,3.0664-1.9111,6.2378-3.5791,8.4214Z"/><path d="M19.6557,1l.0271.0119c1.37,1.4016,5.8386,6.3263,5.8386,10.8487,0,2.8386-1.7447,5.81-3.3277,7.9215h-5.076c-1.5829-2.1115-3.3277-5.083-3.3277-7.9215,0-4.5224,4.469-9.4471,5.8387-10.8488A.0346.0346,0,0,1,19.6557,1m0-1a1.0343,1.0343,0,0,0-.7423.313C17.1375,2.13,12.79,7.0687,12.79,11.8606c0,3.2456,1.9942,6.5567,3.8332,8.9215h6.0651c1.839-2.3648,3.8331-5.6759,3.8331-8.9215,0-4.7919-4.3474-9.73-6.1234-11.5476A1.0339,1.0339,0,0,0,19.6557,0Z"/><path class="a" d="M19.8228,20.2821c.3295-3.0249,1.2143-6.8848,3.5087-9.18,3.2422-3.2417,9.5787-3.66,12.1529-3.689a.53.53,0,0,1,.539.54c-.03,2.669-.4711,9.1592-3.8725,12.3282Z"/><path d="M35.4909,6.9134v1l.0325.0343c-.0228,2.0045-.3515,8.6513-3.5737,11.8344H20.3854c.3651-2.8452,1.2414-6.2675,3.3-8.326C26.8846,8.2569,33.53,7.9356,35.49,7.9134l.0006-1m0,0h-.0123c-2.5372.0287-9.11.4449-12.5,3.8355C20.4131,13.3141,19.5507,17.7,19.27,20.7821h13.073l.0012,0C36.05,17.5038,36.4935,10.58,36.5234,7.9591a1.0289,1.0289,0,0,0-1.0325-1.0457Z"/><path class="a" d="M7.0776,20.2821c-3.4013-3.169-3.8422-9.6587-3.8725-12.3287a.5286.5286,0,0,1,.5327-.54c2.58.0293,8.917.4473,12.1587,3.689,2.2954,2.2959,3.18,6.1552,3.5093,9.18Z"/><path d="M3.7374,6.9134l.0008,1c1.96.0222,8.6054.3435,11.8047,3.5427,2.0585,2.0585,2.9348,5.4807,3.3,8.326H7.2785C4.0563,16.599,3.7279,9.9515,3.7133,7.9217a.03.03,0,0,1,.0241-.0083v-1m0,0A1.0288,1.0288,0,0,0,2.7049,7.9591c.03,2.6211.4731,9.5447,4.1789,12.8226l.0012,0H19.958c-.28-3.0824-1.1429-7.468-3.708-10.0331C12.8593,7.3584,6.2868,6.9422,3.75,6.9135Z"/><rect class="b" x="0.5225" y="19.2821" width="39" height="11" rx="2" ry="2"/><path d="M4.377,27.7669v-4.644H2.523V22.16H7.437v.9629H5.4932v4.644Z"/><path d="M8.499,22.16H9.7412v.081a.27.27,0,0,0-.0586.1167,1.1983,1.1983,0,0,0-.0136.2164v1.809h2.2954V22.16h1.2509v.081a.2655.2655,0,0,0-.0586.1167,1.1616,1.1616,0,0,0-.0136.2164v5.1928h-1.188V25.2918H9.669v2.4751H8.499Z"/><path d="M16.7065,27.866a2.5845,2.5845,0,0,1-1.372-.3432,2.1735,2.1735,0,0,1-.855-.9854,3.7174,3.7174,0,0,1-.2925-1.5512,3.6633,3.6633,0,0,1,.2925-1.5381,2.18,2.18,0,0,1,.855-.981,2.8976,2.8976,0,0,1,2.7358,0,2.21,2.21,0,0,1,.8594.981,3.6168,3.6168,0,0,1,.2969,1.5381,3.7,3.7,0,0,1-.2969,1.5556,2.1729,2.1729,0,0,1-.8594.9854A2.5992,2.5992,0,0,1,16.7065,27.866Zm0-.9453a1.2411,1.2411,0,0,0,.7247-.2085,1.3329,1.3329,0,0,0,.4682-.6435,3.1112,3.1112,0,0,0,.1665-1.1006,2.86,2.86,0,0,0-.1665-1.0381,1.42,1.42,0,0,0-.4682-.6479,1.1886,1.1886,0,0,0-.7247-.2222,1.2161,1.2161,0,0,0-.7421.2222,1.362,1.362,0,0,0-.459.6479,3.0055,3.0055,0,0,0-.1577,1.0381,3.271,3.271,0,0,0,.1577,1.1006,1.1749,1.1749,0,0,0,1.2011.852Z"/><path d="M20.3159,27.7669V22.16h2.2769a3.1666,3.1666,0,0,1,1.2466.2114,1.627,1.627,0,0,1,.7378.585,1.52,1.52,0,0,1,.2475.8594,1.43,1.43,0,0,1-.1616.6708,1.72,1.72,0,0,1-.4546.5445,1.7857,1.7857,0,0,1-.68.333l1.4849,2.4028H23.7446L22.35,25.49h-.8462v2.2768Zm1.188-3.2309H22.665a1.1948,1.1948,0,0,0,.7334-.1846.5991.5991,0,0,0,.2383-.5.6322.6322,0,0,0-.1079-.36.73.73,0,0,0-.3237-.2568,1.405,1.405,0,0,0-.5581-.0943H21.5039Z"/><path d="M26.0757,22.16h1.2236l2.376,3.6269-.063-3.6269h1.1431v.081a.2755.2755,0,0,0-.0586.1167,1.2085,1.2085,0,0,0-.0132.2164v5.1928h-1.08l-2.457-3.852v3.852H26.0757Z"/><path d="M33.7617,27.7669V25.58l-2.061-3.42h1.2417l1.4224,2.2768,1.269-2.2768h1.188l-1.9082,3.4287v2.1782Z"/></svg>