<svg xmlns="http://www.w3.org/2000/svg" viewBox="0 0 191 145.51"><defs><style>.a{fill:#b0d6d2;}.b{fill:none;stroke:#000;stroke-miterlimit:10;stroke-width:5px;}</style></defs><title>logo</title><path d="M19.74,135.43V110.67H9.85v-5.14H36.06v5.14H25.69v24.76Z"/><path d="M39.32,105.53H46V106a1.45,1.45,0,0,0-.32.63,7.06,7.06,0,0,0-.07,1.15v9.65H57.8V105.53h6.67V106a1.43,1.43,0,0,0-.31.63,6.05,6.05,0,0,0-.07,1.15v27.69H57.75v-13.2H45.56v13.2H39.32Z"/><path d="M80.7,136a13.81,13.81,0,0,1-7.32-1.83,11.61,11.61,0,0,1-4.56-5.25,19.9,19.9,0,0,1-1.56-8.28,19.57,19.57,0,0,1,1.56-8.2,11.61,11.61,0,0,1,4.56-5.23,13.81,13.81,0,0,1,7.32-1.83A13.72,13.72,0,0,1,88,107.17a11.71,11.71,0,0,1,4.58,5.23,19.25,19.25,0,0,1,1.59,8.2,19.7,19.7,0,0,1-1.59,8.3A11.51,11.51,0,0,1,88,134.15,13.81,13.81,0,0,1,80.7,136Zm0-5a6.62,6.62,0,0,0,3.86-1.11,7.19,7.19,0,0,0,2.5-3.43,16.67,16.67,0,0,0,.89-5.87,15.28,15.28,0,0,0-.89-5.54,7.64,7.64,0,0,0-2.5-3.46,6.32,6.32,0,0,0-3.86-1.18,6.48,6.48,0,0,0-4,1.18A7.29,7.29,0,0,0,74.29,115a16,16,0,0,0-.84,5.54,17.5,17.5,0,0,0,.84,5.87,6.87,6.87,0,0,0,2.45,3.43A6.79,6.79,0,0,0,80.7,130.92Z"/><path d="M97.54,135.43v-29.9h12.15a17,17,0,0,1,6.65,1.13,8.65,8.65,0,0,1,3.93,3.12,8.07,8.07,0,0,1,1.32,4.58,7.72,7.72,0,0,1-.86,3.58,9.17,9.17,0,0,1-2.43,2.9,9.59,9.59,0,0,1-3.62,1.78l7.92,12.81h-6.77l-7.44-12.14h-4.51v12.14Zm6.34-17.23h6.19a6.44,6.44,0,0,0,3.92-1,3.23,3.23,0,0,0,1.27-2.67,3.36,3.36,0,0,0-.58-1.92,3.91,3.91,0,0,0-1.73-1.37,7.6,7.6,0,0,0-3-.5h-6.1Z"/><path d="M125.87,105.53h6.52l12.67,19.34-.33-19.34h6.1V106a1.35,1.35,0,0,0-.32.63,6.05,6.05,0,0,0-.07,1.15v27.69h-5.76l-13.1-20.54v20.54h-5.71Z"/><path d="M164.46,135.43V123.77l-11-18.24h6.63l7.58,12.14,6.77-12.14h6.34L170.6,123.82v11.61Z"/><path class="a" d="M81.77,97.39C73.77,86.91,64.62,71.7,64.62,57c0-7.33,2.8-27.23,28.72-53.76a2.47,2.47,0,0,1,1.78-.75,2.51,2.51,0,0,1,1.78.75C122.82,29.78,125.62,49.68,125.62,57c0,14.69-9.16,29.9-17.16,40.38Z"/><path d="M95.11,5a138.91,138.91,0,0,1,17.27,21.58C119.5,37.79,123.12,48,123.12,57c0,13.55-8.33,27.76-15.9,37.88H83C75.44,84.77,67.12,70.56,67.12,57c0-9,3.61-19.22,10.73-30.43A139.58,139.58,0,0,1,95.11,5m0-5a5,5,0,0,0-3.57,1.5C83,10.24,62.12,34,62.12,57c0,15.6,9.58,31.51,18.42,42.88h29.15c8.84-11.37,18.43-27.28,18.43-42.88,0-23-20.9-46.77-29.44-55.51A5,5,0,0,0,95.12,0Z"/><path class="a" d="M96,97.39c1.59-14.51,5.84-33,16.82-44,5.18-5.18,21.24-17.27,58.32-17.7h0a2.49,2.49,0,0,1,2.52,2.52c-.43,37.08-12.52,53.14-17.7,58.32-.28.28-.57.55-.86.82Z"/><path d="M171.19,38.23a138.55,138.55,0,0,1-3,27.46c-2.9,13-7.58,22.76-13.93,29.11l-.09.09H98.84c2.91-22.52,10.07-34,15.78-39.69,6.35-6.35,16.14-11,29.11-13.93a138.62,138.62,0,0,1,27.46-3m0-5h0c-12.22.14-43.78,2.15-60.06,18.44C98.76,64,94.61,85.07,93.26,99.89H156.1c.57-.51,1.12-1,1.66-1.56,16.28-16.28,18.29-47.84,18.43-60a5,5,0,0,0-5-5.05Z"/><path class="a" d="M34.7,97.39l-.85-.82c-5.18-5.18-17.28-21.24-17.71-58.32a2.49,2.49,0,0,1,2.49-2.52C55.75,36.16,71.8,48.25,77,53.43c11,11,15.23,29.45,16.83,44Z"/><path d="M18.63,38.23a138.71,138.71,0,0,1,27.47,3c13,2.9,22.76,7.58,29.11,13.93C80.93,60.91,88.09,72.37,91,94.89H35.7l-.09-.09c-6.34-6.35-11-16.14-13.92-29.11a140,140,0,0,1-3.07-27.46h0m0-5a5,5,0,0,0-5,5.05c.14,12.21,2.15,43.77,18.44,60.05.53.54,1.09,1,1.65,1.56H96.57C95.22,85.07,91.08,64,78.75,51.67,62.46,35.38,30.9,33.37,18.69,33.23Z"/><rect class="b" x="2.5" y="97.89" width="186" height="45.12" rx="2" ry="2"/></svg>