<svg xmlns="http://www.w3.org/2000/svg" viewBox="0 0 39.74 30.14"><defs><style>.a{fill:#b0d6d2;}.b{fill:none;stroke:#000;stroke-miterlimit:10;stroke-width:1.04px;}</style></defs><title>logo_1</title><path d="M4.21,28.05V22.89H2.15V21.83H7.61v1.06H5.45v5.16Z"/><path d="M8.28,21.83H9.66v.09a.31.31,0,0,0-.06.13,1.06,1.06,0,0,0,0,.23v2h2.55V21.83h1.39v.09a.24.24,0,0,0-.07.13,1.29,1.29,0,0,0,0,.23v5.77H12.12V25.3H9.58v2.75H8.28Z"/><path d="M16.89,28.16a2.9,2.9,0,0,1-1.52-.38,2.44,2.44,0,0,1-.95-1.1A4.06,4.06,0,0,1,14.1,25a4.08,4.08,0,0,1,.32-1.71,2.39,2.39,0,0,1,.95-1.08,2.81,2.81,0,0,1,1.52-.38,2.81,2.81,0,0,1,1.52.38,2.45,2.45,0,0,1,.95,1.08A4.08,4.08,0,0,1,19.69,25a4.14,4.14,0,0,1-.33,1.73,2.42,2.42,0,0,1-.95,1.09A2.9,2.9,0,0,1,16.89,28.16Zm0-1.05a1.43,1.43,0,0,0,.81-.23,1.6,1.6,0,0,0,.52-.72,3.53,3.53,0,0,0,.18-1.22,3.23,3.23,0,0,0-.18-1.15,1.6,1.6,0,0,0-.52-.72,1.45,1.45,0,0,0-1.63,0,1.52,1.52,0,0,0-.51.72,3.23,3.23,0,0,0-.18,1.15,3.53,3.53,0,0,0,.18,1.22,1.52,1.52,0,0,0,.51.72A1.44,1.44,0,0,0,16.89,27.11Z"/><path d="M20.4,28.05V21.83h2.52a3.51,3.51,0,0,1,1.39.23,1.86,1.86,0,0,1,.82.65,1.7,1.7,0,0,1,.27.95,1.6,1.6,0,0,1-.18.75,1.91,1.91,0,0,1-.5.6,2,2,0,0,1-.76.37l1.65,2.67H24.2l-1.55-2.53h-.93v2.53Zm1.32-3.59H23a1.39,1.39,0,0,0,.82-.2.68.68,0,0,0,.26-.56.72.72,0,0,0-.12-.4A.8.8,0,0,0,23.6,23a1.53,1.53,0,0,0-.62-.11H21.72Z"/><path d="M26.29,21.83h1.36l2.63,4-.07-4h1.27v.09a.31.31,0,0,0-.06.13,1.06,1.06,0,0,0,0,.23v5.77H30.2l-2.72-4.28v4.28H26.29Z"/><path d="M34.32,28.05V25.62L32,21.83h1.38L35,24.35l1.41-2.52h1.31l-2.11,3.8v2.42Z"/><path class="a" d="M17.13,20.26c-1.66-2.18-3.57-5.34-3.57-8.4,0-4.57,4.18-9.34,6-11.18a.51.51,0,0,1,.74,0c1.8,1.84,6,6.61,6,11.18,0,3.06-1.91,6.22-3.57,8.4Z"/><path d="M19.91,1c1.37,1.4,5.83,6.32,5.83,10.82,0,2.82-1.74,5.78-3.31,7.88h-5c-1.57-2.1-3.3-5.06-3.3-7.88,0-4.5,4.45-9.41,5.82-10.82m0-1a1,1,0,0,0-.74.31C17.39,2.13,13,7.07,13,11.86c0,3.25,2,6.56,3.84,8.92h6.06c1.84-2.36,3.84-5.67,3.84-8.92,0-4.79-4.35-9.73-6.13-11.55A1,1,0,0,0,19.91,0Z"/><path class="a" d="M20.1,20.26c.33-3,1.22-6.86,3.5-9.14,3.24-3.24,9.56-3.66,12.13-3.69a.53.53,0,0,1,.38.16.51.51,0,0,1,.15.37c0,2.57-.45,8.9-3.68,12.13l-.18.17Z"/><path d="M35.74,8c0,2-.35,8.59-3.53,11.77l0,0H20.69c.36-2.83,1.24-6.22,3.28-8.26C27.15,8.3,33.78,8,35.74,8m0-1h0c-2.54,0-9.11.45-12.5,3.84-2.56,2.56-3.42,7-3.71,10H32.6c.12-.1.23-.21.34-.32,3.39-3.39,3.81-10,3.84-12.5a1,1,0,0,0-1-1Z"/><path class="a" d="M7.34,20.26l-.18-.17C3.93,16.86,3.51,10.53,3.48,8a.51.51,0,0,1,.15-.37A.52.52,0,0,1,4,7.43c2.57,0,8.9.45,12.14,3.69,2.28,2.28,3.17,6.12,3.5,9.14Z"/><path d="M4,6.91V8c2,0,8.58.35,11.77,3.53,2,2,2.91,5.43,3.28,8.26H7.55l0,0C4.34,16.54,4,9.91,4,8H4v-1m0,0A1,1,0,0,0,3,8c0,2.54.45,9.11,3.84,12.5.11.11.22.22.34.32H20.21c-.28-3.08-1.14-7.47-3.71-10C13.12,7.36,6.55,6.94,4,6.91Z"/><rect class="b" x="0.52" y="20.24" width="38.7" height="9.39" rx="2" ry="2"/></svg>