<svg xmlns="http://www.w3.org/2000/svg" viewBox="0 0 83.7354 69.7293"><defs><style>.a{fill:#b0d6d2;}.b{fill:#fff;stroke:#000;stroke-miterlimit:10;}.c{font-size:9px;font-family:Montserrat-SemiBold, Montserrat;font-weight:700;}.d{letter-spacing:-0.015em;}.e{letter-spacing:-0.01em;}.f{letter-spacing:-0.013em;}</style></defs><title>logo_3</title><path class="a" d="M35.5225,37.7225c-3.1358-4.0718-6.795-10.0737-6.795-15.9087,0-8.583,7.7764-17.4673,11.12-20.8887a1.4067,1.4067,0,0,1,2.0156,0c3.3433,3.4219,11.12,12.3072,11.12,20.8887,0,5.8345-3.6592,11.8364-6.7954,15.9087Z"/><path d="M40.8549,1a.9025.9025,0,0,1,.65.2745c3.3006,3.3776,10.9773,12.14,10.9773,20.54,0,5.6026-3.488,11.4038-6.5419,15.4084H35.7694c-3.0539-4.0046-6.542-9.8058-6.542-15.4084,0-8.3991,7.6768-17.1619,10.9774-20.5395A.9024.9024,0,0,1,40.8549,1m0-1A1.9027,1.9027,0,0,0,39.49.5756C36.2232,3.9182,28.2274,13.0007,28.2274,21.814c0,5.97,3.6677,12.0592,7.05,16.4084H46.4323c3.3823-4.3492,7.05-10.4389,7.05-16.4084,0-8.8133-7.9957-17.8958-11.2621-21.2384A1.9026,1.9026,0,0,0,40.8549,0Z"/><path class="a" d="M40.6963,37.7225c.5727-5.6958,2.1968-13.1729,6.623-17.5991,6.0713-6.0713,17.8575-6.8535,22.6426-6.9082h0a1.3935,1.3935,0,0,1,1.416,1.4179C71.3213,19.6287,70.4863,31.8245,64,37.7225Z"/><path d="M69.9789,12.7151v1a.8925.8925,0,0,1,.899.9119c-.0558,4.8935-.8619,16.7816-7.0736,22.5955H41.2516c.6127-5.5367,2.2386-12.5632,6.4211-16.7457,5.9418-5.9417,17.571-6.7079,22.2957-6.7615l.01-1m0,0-.0225,0c-4.6664.0529-16.7547.8182-22.9908,7.0543-4.7178,4.7178-6.3039,12.7837-6.82,18.4528H64.19l.0022-.0008c6.8158-6.0287,7.631-18.7625,7.6859-23.5833a1.8924,1.8924,0,0,0-1.8989-1.9233Z"/><path class="a" d="M17.5571,37.7225c-6.4853-5.8965-7.3213-18.0933-7.3784-23.09a1.3917,1.3917,0,0,1,1.3989-1.4174c4.8023.0547,16.5889.8369,22.66,6.9082,4.4263,4.4262,6.05,11.9033,6.6231,17.5991Z"/><path d="M11.5777,12.7151l.0111,1c4.7241.0536,16.3533.82,22.2951,6.7615,4.1824,4.1825,5.8084,11.209,6.4211,16.7457H17.7523c-6.2117-5.8139-7.0179-17.702-7.0736-22.5955a.8923.8923,0,0,1,.899-.9119v-1m0,0a1.8922,1.8922,0,0,0-1.8989,1.9233c.0549,4.8208.87,17.5546,7.6859,23.5833l.0022.0008H41.4108c-.5159-5.6691-2.102-13.735-6.82-18.4528C28.3549,13.5335,16.2666,12.7682,11.6,12.7153l-.0225,0Z"/><rect class="b" x="4.9138" y="35.4636" width="71.7289" height="20.2312" rx="2" ry="2"/><path d="M12.7549,51.0687V42.5272h-3.41v-1.771h9.0381v1.771H14.8071v8.5415Z"/><path d="M20.3359,40.7562H22.62v.1489a.4979.4979,0,0,0-.1074.2153,2.1633,2.1633,0,0,0-.0249.3975V44.845H26.709V40.7562H29.01v.1489a.4935.4935,0,0,0-.1079.2153,2.1731,2.1731,0,0,0-.0245.3975v9.5508h-2.185V46.5164H22.4878v4.5523H20.3359Z"/><path d="M35.4321,51.2508a4.7594,4.7594,0,0,1-2.5244-.6313,4.0026,4.0026,0,0,1-1.5723-1.8121,6.8474,6.8474,0,0,1-.538-2.8535,6.7461,6.7461,0,0,1,.538-2.8286,4.0094,4.0094,0,0,1,1.5723-1.8037,5.33,5.33,0,0,1,5.0322,0,4.0638,4.0638,0,0,1,1.5806,1.8037,6.6576,6.6576,0,0,1,.5464,2.8286,6.8149,6.8149,0,0,1-.5464,2.8619,4.0017,4.0017,0,0,1-1.5806,1.812A4.7749,4.7749,0,0,1,35.4321,51.2508Zm0-1.7383a2.2836,2.2836,0,0,0,1.3325-.3833,2.4525,2.4525,0,0,0,.8609-1.1836,5.7219,5.7219,0,0,0,.3061-2.0244,5.26,5.26,0,0,0-.3061-1.91,2.6136,2.6136,0,0,0-.8609-1.1919,2.1873,2.1873,0,0,0-1.3325-.4082,2.2406,2.2406,0,0,0-1.3657.4082,2.5072,2.5072,0,0,0-.8442,1.1919,5.537,5.537,0,0,0-.29,1.91,6.0253,6.0253,0,0,0,.29,2.0244,2.1605,2.1605,0,0,0,2.21,1.5669Z"/><path d="M42.07,51.0687V40.7562h4.1875a5.8281,5.8281,0,0,1,2.293.3891,2.9963,2.9963,0,0,1,1.3569,1.0757,2.7943,2.7943,0,0,1,.4551,1.5811,2.6175,2.6175,0,0,1-.2978,1.2329,3.13,3.13,0,0,1-.836,1.0015,3.2668,3.2668,0,0,1-1.2495.6127l2.731,4.4195H48.3765l-2.566-4.188H44.2549v4.188Zm2.1851-5.9424H46.39a2.2,2.2,0,0,0,1.3492-.3394,1.1009,1.1009,0,0,0,.4384-.9189,1.17,1.17,0,0,0-.1987-.6621,1.3378,1.3378,0,0,0-.5957-.4717,2.5876,2.5876,0,0,0-1.0264-.1738h-2.102Z"/><path d="M52.6641,40.7562H54.915l4.37,6.6709-.1163-6.6709h2.1026v.1489a.4924.4924,0,0,0-.1074.2153,2.1512,2.1512,0,0,0-.0254.3975v9.5508H59.1523l-4.5185-7.0845v7.0845h-1.97Z"/><path d="M66.8,51.0687V47.0462l-3.791-6.29H65.293l2.6152,4.188,2.334-4.188h2.1855l-3.51,6.3066v4.0059Z"/><text class="c" transform="translate(0.0449 67.3446)"><tspan class="d">V</tspan><tspan x="6.4258" y="0">I</tspan><tspan class="e" x="9.2969" y="0">R</tspan><tspan class="f" x="15.7856" y="0">T</tspan><tspan class="d" x="21.0869" y="0">U</tspan><tspan x="28.0527" y="0">AL GARDEN</tspan></text></svg>