<svg xmlns="http://www.w3.org/2000/svg" viewBox="0 0 137.623 98.95"><defs><style>.a{fill:#b0d6d2;}.b{fill:#fff;stroke:#000;stroke-miterlimit:10;stroke-width:2px;}</style></defs><title>logo_4</title><path class="a" d="M114.514,50.9549c-4.2109-5.4922-9.0742-13.5215-9.0742-21.3032,0-11.5508,10.5068-23.5484,15.0234-28.17a1.5929,1.5929,0,0,1,2.2822,0c4.5166,4.623,15.0225,16.6216,15.0225,28.17,0,7.7807-4.8633,15.8105-9.0732,21.3032Z" transform="translate(-52.5257)"/><path d="M121.604,2a.5835.5835,0,0,1,.4254.18c13.3027,13.6133,14.7389,23.7465,14.7389,27.4713,0,7.3227-4.5264,14.9511-8.57,20.3037H115.01c-4.0434-5.3526-8.57-12.981-8.57-20.3037,0-3.7248,1.4362-13.858,14.7389-27.4713A.5832.5832,0,0,1,121.604,2m0-2a2.586,2.586,0,0,0-1.8558.7824C115.3083,5.326,104.44,17.6717,104.44,29.6515c0,8.1142,4.9854,16.3918,9.5829,22.3037h15.1627c4.5975-5.9119,9.5829-14.1895,9.5829-22.3037,0-11.98-10.8686-24.3255-15.3085-28.8691A2.586,2.586,0,0,0,121.6041,0Z" transform="translate(-52.5257)"/><path class="a" d="M121.7425,50.9549c.8057-7.6431,3.0156-17.5161,8.875-23.3755,8.169-8.1689,24.09-9.2221,30.5557-9.2959h0a1.5713,1.5713,0,0,1,1.6,1.6031c-.0762,6.7246-1.1934,23.104-9.833,31.0683Z" transform="translate(-52.5257)"/><path d="M161.1919,17.2835v2a.57.57,0,0,1,.4157.1692.576.576,0,0,1,.1656.4223c-.0579,5.09-.9021,22.0413-9.2307,30.08h-29.68c.8793-7.3013,3.0822-16.2884,8.4622-21.6684,2.6351-2.6351,10.82-8.7872,29.8586-9.0032l.0088-2m0,0-.0305,0c-6.343.0719-22.7744,1.1122-31.2511,9.5888-6.4128,6.4129-8.5688,17.3768-9.27,25.0827h32.6825l.003-.0011c9.2646-8.1947,10.3727-25.5035,10.4473-32.0565a2.5721,2.5721,0,0,0-2.5812-2.6142Z" transform="translate(-52.5257)"/><path class="a" d="M90.0589,50.9549c-8.6421-8.0181-9.7553-24.3545-9.832-31.0683a1.5718,1.5718,0,0,1,1.581-1.6031c6.4849.0738,22.4053,1.127,30.5743,9.2959,5.8593,5.8594,8.0693,15.7324,8.875,23.3755Z" transform="translate(-52.5257)"/><path d="M81.8081,17.2835l.0078,2c19.04.216,27.2245,6.3681,29.86,9.0032,5.38,5.38,7.5829,14.3671,8.4622,21.6684h-29.68c-8.3287-8.0391-9.1728-24.99-9.2307-30.08a.5753.5753,0,0,1,.1656-.4223.57.57,0,0,1,.4157-.1692v-2m0,0a2.572,2.572,0,0,0-2.5812,2.6142c.0746,6.553,1.1826,23.8618,10.4473,32.0565l.0029.0011H122.36c-.7012-7.7059-2.8572-18.67-9.27-25.0827-8.4767-8.4766-24.9081-9.5169-31.2511-9.5888l-.0305,0Z" transform="translate(-52.5257)"/><rect class="b" x="20.2242" y="48.2052" width="97.5001" height="27.5" rx="2" ry="2"/><path d="M83.4085,69.4168v-11.61H78.7733V55.3992H91.0584v2.4073h-4.86v11.61Z" transform="translate(-52.5257)"/><path d="M93.7132,55.3992h3.105v.2022a.68.68,0,0,0-.146.293,2.9491,2.9491,0,0,0-.0337.54v4.5225h5.7373V55.3992h3.1275v.2022a.6778.6778,0,0,0-.1455.293,2.937,2.937,0,0,0-.0342.54V69.4168h-2.97V63.2293H96.6385v6.1875H93.7132Z" transform="translate(-52.5257)"/><path d="M114.2337,69.6639a6.4683,6.4683,0,0,1-3.4316-.8574,5.4481,5.4481,0,0,1-2.1377-2.4629,9.3179,9.3179,0,0,1-.7305-3.8789,9.1746,9.1746,0,0,1,.7305-3.8448,5.4554,5.4554,0,0,1,2.1377-2.4521,7.2416,7.2416,0,0,1,6.84,0A5.5185,5.5185,0,0,1,119.79,58.62a9.034,9.034,0,0,1,.7422,3.8448,9.2477,9.2477,0,0,1-.7422,3.89,5.4287,5.4287,0,0,1-2.1485,2.4629A6.4922,6.4922,0,0,1,114.2337,69.6639Zm0-2.3623a3.1005,3.1005,0,0,0,1.8106-.5215,3.3315,3.3315,0,0,0,1.17-1.6084,7.7828,7.7828,0,0,0,.416-2.7519,7.1535,7.1535,0,0,0-.416-2.5957,3.5556,3.5556,0,0,0-1.17-1.62,2.9661,2.9661,0,0,0-1.8106-.5547,3.0424,3.0424,0,0,0-1.8564.5547,3.4132,3.4132,0,0,0-1.1475,1.62,7.515,7.515,0,0,0-.3935,2.5957,8.18,8.18,0,0,0,.3935,2.7519,2.9382,2.9382,0,0,0,3.0039,2.13Z" transform="translate(-52.5257)"/><path d="M123.2552,69.4168V55.3992h5.6924a7.9336,7.9336,0,0,1,3.1162.5284,4.0829,4.0829,0,0,1,1.8457,1.4629,3.8039,3.8039,0,0,1,.6182,2.1484,3.5651,3.5651,0,0,1-.4053,1.6768,4.251,4.251,0,0,1-1.1357,1.3613,4.4482,4.4482,0,0,1-1.6993.832L135,69.4168h-3.1728L128.34,63.7244h-2.1153v5.6924Zm2.97-8.0771h2.9034a2.9837,2.9837,0,0,0,1.833-.4619,1.4945,1.4945,0,0,0,.5966-1.2481,1.5826,1.5826,0,0,0-.27-.9,1.8157,1.8157,0,0,0-.8095-.6416,3.5179,3.5179,0,0,0-1.3955-.2363h-2.8575Z" transform="translate(-52.5257)"/><path d="M137.6556,55.3992h3.06l5.94,9.0674-.1582-9.0674h2.8584v.2022a.67.67,0,0,0-.1465.293,2.9461,2.9461,0,0,0-.0342.54V69.4168h-2.7l-6.1425-9.63v9.63h-2.6768Z" transform="translate(-52.5257)"/><path d="M156.87,69.4168V63.9491l-5.1523-8.55h3.1045l3.5557,5.6924,3.1718-5.6924h2.9707l-4.77,8.5723v5.4453Z" transform="translate(-52.5257)"/><path d="M56.4676,98.7518,52.5257,87.5379h2.0879l2.7,7.9658,2.5381-7.9658h2.0161L57.9793,98.7518Z" transform="translate(-52.5257)"/><path d="M63.4876,98.7518V97.0955h2.4659V89.1942H63.6493V87.5379h6.7143v1.6563H67.9154v7.9013h2.5381v1.6563Z" transform="translate(-52.5257)"/><path d="M72.9373,98.7518V87.5379h3.9961a5.8715,5.8715,0,0,1,2.3579.4053A2.9048,2.9048,0,0,1,80.66,89.0946a3.3027,3.3027,0,0,1,.45,1.7373A2.9137,2.9137,0,0,1,80.8123,92.1a3.5694,3.5694,0,0,1-.8188,1.0987,3.1609,3.1609,0,0,1-1.2422.6923l2.6821,4.86H79.2371l-2.5556-4.6436H75.0072v4.6436Zm2.07-6.3721h2.07a2.2344,2.2344,0,0,0,1.4487-.3955,1.352,1.352,0,0,0,.4771-1.0986,1.4322,1.4322,0,0,0-.8638-1.3584,2.4841,2.4841,0,0,0-1.08-.2071H75.0072Z" transform="translate(-52.5257)"/><path d="M85.7533,98.7518V89.2479H82.3514v-1.71h8.9458v1.71h-3.564v9.5039Z" transform="translate(-52.5257)"/><path d="M93.637,97.828a4.2764,4.2764,0,0,1-1.08-3.0948V87.5379h2.1963v.1612a.5323.5323,0,0,0-.1172.2333,2.3386,2.3386,0,0,0-.0269.4307v6.3838a3.0436,3.0436,0,0,0,.5039,1.8477,1.9238,1.9238,0,0,0,1.6558.6816,1.9528,1.9528,0,0,0,1.7012-.69,3.1974,3.1974,0,0,0,.4951-1.8926V87.5379h1.9975V94.68a4.9489,4.9489,0,0,1-.5215,2.4131,3.265,3.265,0,0,1-1.476,1.3994,5.07,5.07,0,0,1-2.2139.458A4.1232,4.1232,0,0,1,93.637,97.828Z" transform="translate(-52.5257)"/><path d="M106.6517,91.1678l-2.6279,7.584H101.953l4.2309-11.2861h.9356l4.23,11.2861h-2.1064Zm2.3574,4.9561h-4.8955l.36-1.4942h4.1572Z" transform="translate(-52.5257)"/><path d="M112.7347,87.5379h2.2324V87.7a.4638.4638,0,0,0-.1347.2334,2.299,2.299,0,0,0-.0274.4326v8.712h5.8135v1.6738h-7.8838Z" transform="translate(-52.5257)"/><path d="M134.2074,98.2362a4.6874,4.6874,0,0,1-1.7-1.9971,6.9709,6.9709,0,0,1-.6036-2.9951,7.8428,7.8428,0,0,1,.3243-2.417,4.9663,4.9663,0,0,1,.873-1.6494,4.4385,4.4385,0,0,1,1.2061-1.0342,4.8378,4.8378,0,0,1,1.3232-.5264,5.4321,5.4321,0,0,1,1.1875-.1513,5.0272,5.0272,0,0,1,1.53.2343,4.7725,4.7725,0,0,1,1.3408.666,3.5312,3.5312,0,0,1,.9805,1.0616l-1.1875,1.206-.1084.126-.126-.126c-.0234-.0957-.0479-.1885-.0713-.2793a1.111,1.111,0,0,0-.2344-.3681,2.6772,2.6772,0,0,0-.54-.4141,2.8956,2.8956,0,0,0-.6836-.2881A3.2725,3.2725,0,0,0,135.99,89.3a2.3079,2.3079,0,0,0-.8008.418,3.0557,3.0557,0,0,0-.6572.7373,3.2985,3.2985,0,0,0-.4317,1.0928,7.0246,7.0246,0,0,0-.1445,1.5185,7.3057,7.3057,0,0,0,.207,1.8379,3.7929,3.7929,0,0,0,.5948,1.3145,2.5,2.5,0,0,0,2.0966,1.0576,5.0873,5.0873,0,0,0,.5127-.0264,3.4689,3.4689,0,0,0,.5039-.09,3.0833,3.0833,0,0,0,.4864-.168,1.9671,1.9671,0,0,0,.459-.2842V94.72h-2.0879V92.992h3.9775v4.7949a5.8918,5.8918,0,0,1-1.8535.8946,7.4864,7.4864,0,0,1-1.9981.2685A4.7536,4.7536,0,0,1,134.2074,98.2362Z" transform="translate(-52.5257)"/><path d="M146.2494,91.1678l-2.628,7.584h-2.07l4.2305-11.2861h.9355l4.2305,11.2861h-2.1065Zm2.3574,4.9561h-4.8955l.36-1.4942h4.1572Z" transform="translate(-52.5257)"/><path d="M152.1341,98.7518V87.5379H156.13a5.8758,5.8758,0,0,1,2.3584.4053,2.9052,2.9052,0,0,1,1.3682,1.1514,3.3029,3.3029,0,0,1,.45,1.7373,2.908,2.908,0,0,1-.2979,1.2685,3.5519,3.5519,0,0,1-.8183,1.0987,3.1679,3.1679,0,0,1-1.2422.6923l2.6816,4.86h-2.1953l-2.5566-4.6436h-1.6739v4.6436Zm2.07-6.3721h2.07a2.238,2.238,0,0,0,1.4493-.3955,1.3533,1.3533,0,0,0,.4765-1.0986,1.4313,1.4313,0,0,0-.8642-1.3584,2.4826,2.4826,0,0,0-1.08-.2071h-2.0518Z" transform="translate(-52.5257)"/><path d="M161.9437,98.7518V87.5379h3.168a7.8031,7.8031,0,0,1,1.8183.18,4.0068,4.0068,0,0,1,1.26.5225,4.162,4.162,0,0,1,.9365.8457,5.1121,5.1121,0,0,1,.7022,1.1425,7.0213,7.0213,0,0,1,.4492,1.377,7.5384,7.5384,0,0,1,.1621,1.62A8.3437,8.3437,0,0,1,170.08,95.52a4.5041,4.5041,0,0,1-.999,1.7373,4.42,4.42,0,0,1-1.71,1.1075,7.1439,7.1439,0,0,1-2.4931.3867ZM163.96,97.15h.8457a3.9935,3.9935,0,0,0,2.1064-.4951,2.7821,2.7821,0,0,0,1.16-1.3682,5.2325,5.2325,0,0,0,.333-2.0429,6.5872,6.5872,0,0,0-.3145-2.1514A2.7133,2.7133,0,0,0,167.02,89.68a3.5471,3.5471,0,0,0-1.9981-.5039H163.96Z" transform="translate(-52.5257)"/><path d="M172.0052,98.7518V87.5379h8.0283v1.6738h-6.03v2.8624h4.9677v1.6738h-4.9677v3.33H179.98v1.6738Z" transform="translate(-52.5257)"/><path d="M181.6712,87.5379h2.1241l4.4277,7.47-.09-7.47h2.0157V87.7a.5381.5381,0,0,0-.1172.2334,2.415,2.415,0,0,0-.0264.4326V98.7518h-1.8906l-4.5713-7.9561v7.9561h-1.8721Z" transform="translate(-52.5257)"/></svg>